<?xml version="1.0" encoding="utf-8"?>
<!-- Generator: Adobe Illustrator 26.2.1, SVG Export Plug-In . SVG Version: 6.00 Build 0)  -->
<svg version="1.2" baseProfile="tiny" id="レイヤー_1"
	 xmlns="http://www.w3.org/2000/svg" xmlns:xlink="http://www.w3.org/1999/xlink" x="0px" y="0px" viewBox="0 0 758.23 758.23"
	 overflow="visible" xml:space="preserve">
<path fill="#FFFFFF" d="M371.51,743.09L14.65,386.22c-4.2-4.2-4.2-11.01,0-15.21L371.51,14.15c4.2-4.2,11.01-4.2,15.21,0
	l356.87,356.87c4.2,4.2,4.2,11.01,0,15.21L386.72,743.09C382.52,747.29,375.71,747.29,371.51,743.09z M147.68,385.68l224.38,224.38
	c3.9,3.9,10.23,3.9,14.13,0l224.38-224.38c3.9-3.9,3.9-10.23,0-14.13l-76.6-76.6c-3.9-3.9-10.23-3.9-14.13,0L363.9,450.87
	c-3.9,3.9-10.23,3.9-14.13,0l-45.87-45.87c-3.9-3.9-3.9-10.23,0-14.13l155.92-155.92c3.9-3.9,3.9-10.23,0-14.13l-73.65-73.65
	c-3.9-3.9-10.23-3.9-14.13,0L147.68,371.56C143.78,375.46,143.78,381.78,147.68,385.68z"/>
</svg>
