<?xml version="1.0" standalone="no"?>
<!DOCTYPE svg PUBLIC "-//W3C//DTD SVG 20010904//EN"
 "http://www.w3.org/TR/2001/REC-SVG-20010904/DTD/svg10.dtd">
<svg version="1.0" xmlns="http://www.w3.org/2000/svg"
 width="1000.000000pt" height="1000.000000pt" viewBox="0 0 1000.000000 1000.000000"
 preserveAspectRatio="xMidYMid meet">
<metadata>
Created by potrace 1.14, written by Peter Selinger 2001-2017
</metadata>
<g transform="translate(0.000000,1000.000000) scale(0.100000,-0.100000)"
fill="#000000" stroke="none">
<path d="M4940 9989 c-27 -11 -4863 -4839 -4911 -4903 -33 -45 -38 -98 -14
-149 8 -18 1116 -1133 2462 -2479 2193 -2192 2452 -2447 2486 -2453 20 -4 54
-4 75 0 33 6 292 262 2494 2463 2201 2202 2457 2461 2463 2495 4 20 4 54 0 75
-6 33 -261 292 -2453 2485 -1346 1346 -2461 2454 -2479 2462 -35 17 -86 19
-123 4z m113 -1815 c25 -8 1047 -1026 1066 -1062 19 -35 20 -83 3 -117 -8 -16
-498 -513 -1089 -1104 -590 -590 -1078 -1082 -1084 -1093 -15 -29 -13 -91 4
-124 9 -16 161 -174 339 -352 335 -334 364 -357 428 -345 13 2 38 15 55 27 17
13 507 500 1090 1083 583 583 1070 1065 1083 1072 35 19 57 21 98 9 31 -8 136
-109 580 -552 444 -444 544 -549 552 -580 12 -41 10 -63 -9 -98 -15 -29 -3076
-3091 -3105 -3106 -36 -19 -76 -22 -111 -7 -23 10 -562 542 -1578 1558 -1288
1288 -1545 1549 -1553 1580 -12 42 -10 64 9 99 7 13 706 717 1554 1565 1220
1220 1549 1543 1576 1551 34 9 53 8 92 -4z"/>
</g>
</svg>
