<?xml version="1.0" standalone="no"?>
<!DOCTYPE svg PUBLIC "-//W3C//DTD SVG 20010904//EN"
 "http://www.w3.org/TR/2001/REC-SVG-20010904/DTD/svg10.dtd">
<svg version="1.0" xmlns="http://www.w3.org/2000/svg"
 width="500.000000pt" height="500.000000pt" viewBox="0 0 500.000000 500.000000"
 preserveAspectRatio="xMidYMid meet">
<metadata>
Created by potrace 1.14, written by Peter Selinger 2001-2017
</metadata>
<g transform="translate(0.000000,500.000000) scale(0.100000,-0.100000)"
fill="#000000" stroke="none">
<path d="M0 2500 l0 -2500 2500 0 2500 0 0 2500 0 2500 -2500 0 -2500 0 0
-2500z m2425 1495 c37 -36 35 -95 -5 -128 l-30 -26 0 -305 0 -306 110 0 110 0
0 310 c0 270 -2 311 -15 317 -19 7 -45 55 -45 83 0 33 53 80 90 80 22 0 41 -9
61 -29 40 -40 39 -83 -1 -121 l-30 -28 0 -331 0 -331 -70 0 -70 0 0 -685 c0
-661 1 -685 19 -694 44 -24 45 -118 1 -141 -36 -20 -87 -12 -109 16 -30 39
-27 80 9 114 l30 28 -2 679 -3 678 -67 3 -68 3 0 330 0 330 -30 26 c-24 20
-30 33 -30 64 0 79 91 119 145 64z m-406 -106 c33 -12 61 -52 61 -89 0 -12
-13 -35 -30 -52 -27 -26 -30 -36 -30 -89 l0 -59 115 0 115 0 0 -210 0 -210
-25 0 -25 0 0 105 0 105 -255 0 -255 0 0 81 c0 77 -1 82 -30 109 -60 56 -26
150 55 150 81 0 115 -94 54 -151 -27 -25 -30 -33 -27 -79 l3 -51 225 0 225 0
3 51 3 50 -120 0 -121 0 0 81 c0 76 -2 84 -30 116 -32 36 -36 56 -20 98 8 21
30 37 76 55 1 0 15 -5 33 -11z m1055 -18 c30 -26 38 -58 22 -96 -8 -18 -24
-38 -35 -45 -19 -10 -21 -20 -21 -95 l0 -85 -115 0 -115 0 0 -50 0 -50 230 0
230 0 0 52 c0 45 -4 55 -30 77 -43 37 -49 79 -15 119 20 24 35 32 60 32 47 0
64 -8 80 -41 22 -41 18 -64 -15 -102 -26 -30 -29 -41 -32 -113 l-3 -79 -252
-3 -253 -2 0 -105 0 -105 -25 0 -25 0 0 210 0 210 115 0 115 0 0 56 c0 49 -4
59 -30 84 -49 46 -38 119 22 145 35 14 64 10 92 -14z m-1532 -561 l30 -30 264
0 264 0 0 -85 0 -85 145 0 145 0 0 -595 0 -595 -211 0 -211 0 -28 -30 c-38
-40 -81 -41 -121 -1 -38 39 -38 74 1 113 27 26 36 30 68 25 23 -4 45 -16 57
-32 l21 -25 187 0 187 0 -2 543 -3 542 -142 3 -143 3 0 84 0 85 -241 0 -240 0
-26 -30 c-66 -79 -190 2 -141 93 30 56 93 64 140 17z m2044 6 c21 -17 28 -33
28 -59 0 -83 -98 -119 -152 -57 l-26 30 -238 0 -238 0 0 -85 0 -85 -145 0
-145 0 0 -213 c0 -118 -3 -363 -7 -545 l-6 -332 191 0 190 0 30 30 c58 57 142
24 142 -55 0 -79 -84 -112 -142 -55 l-30 30 -209 0 -209 0 -2 515 c-1 283 -3
550 -3 593 l0 77 143 3 142 3 0 84 0 85 268 0 267 0 28 30 c36 38 84 40 123 6z
m-1804 -176 c28 -29 34 -30 114 -30 l84 0 0 -30 0 -30 -86 0 c-79 0 -88 -2
-105 -24 -26 -32 -70 -41 -107 -22 -33 17 -42 34 -42 80 0 78 85 112 142 56z
m1559 1 c35 -35 38 -77 9 -114 -36 -46 -99 -44 -140 4 -12 15 -32 19 -100 21
-83 3 -85 4 -85 28 0 24 2 25 85 28 68 2 88 6 100 21 39 48 90 53 131 12z
m-1091 -235 c0 -80 1 -86 30 -114 73 -73 -8 -185 -99 -138 -55 29 -58 124 -5
148 23 11 24 16 24 100 0 87 0 88 25 88 25 0 25 -1 25 -84z m560 0 c0 -80 1
-86 30 -114 40 -41 40 -83 1 -123 -31 -31 -59 -36 -94 -17 -34 17 -46 39 -47
80 0 28 7 42 30 61 29 25 30 28 30 111 0 85 0 86 25 86 25 0 25 -1 25 -84z
m-1535 -1593 c31 -17 73 -65 84 -96 30 -78 -1 -178 -70 -224 -37 -24 -53 -28
-140 -31 l-99 -4 0 188 0 189 102 -5 c57 -3 112 -11 123 -17z m852 -1 c31 -17
43 -43 43 -91 0 -38 -17 -91 -29 -91 -3 0 -14 -7 -24 -14 -17 -13 -16 -17 18
-78 19 -36 35 -68 35 -71 0 -4 -19 -7 -42 -7 -43 0 -43 0 -78 68 -25 48 -41
68 -57 70 -22 3 -23 0 -23 -67 l0 -71 -40 0 -40 0 0 188 0 187 107 -5 c60 -3
118 -11 130 -18z m254 -97 c13 -63 26 -115 30 -115 3 0 13 35 22 78 34 153 33
152 77 152 44 0 43 1 77 -153 9 -43 20 -74 24 -70 4 5 17 55 28 112 12 58 24
107 27 110 5 5 76 2 82 -4 1 -1 -15 -81 -38 -177 -22 -96 -40 -178 -40 -182 0
-4 -23 -6 -52 -4 l-52 3 -23 95 c-13 52 -26 102 -29 110 -3 8 -18 -34 -33 -95
l-26 -110 -53 -3 c-28 -2 -52 -1 -52 1 0 2 -18 82 -40 177 -22 95 -40 177 -40
181 0 7 67 17 81 12 3 -1 17 -54 30 -118z m548 85 c5 -19 17 -72 27 -118 9
-45 20 -80 23 -76 3 3 17 53 31 112 l25 107 38 6 c46 7 44 10 77 -135 14 -59
26 -93 30 -85 5 8 15 52 25 99 25 127 20 120 71 120 38 0 45 -3 40 -17 -2 -10
-21 -90 -41 -178 -20 -88 -39 -163 -42 -167 -2 -5 -26 -8 -52 -8 l-47 0 -23
98 c-13 53 -27 103 -30 110 -4 7 -15 -22 -25 -64 -37 -155 -30 -144 -86 -144
-46 0 -50 2 -57 28 -23 92 -79 343 -77 345 1 1 21 2 43 2 39 0 42 -2 50 -35z
m1031 -156 l0 -184 -44 0 -45 0 -68 110 c-37 60 -70 110 -73 110 -3 0 -5 -48
-5 -107 l0 -108 -42 -3 -43 -3 0 185 0 186 48 0 47 0 70 -113 70 -112 3 115 3
115 39 -3 40 -4 0 -184z m-2239 11 c33 -93 59 -175 59 -183 0 -9 -12 -12 -42
-10 -37 3 -42 6 -53 38 -12 35 -12 35 -70 35 -58 0 -58 0 -70 -35 -11 -33 -15
-35 -58 -38 l-47 -3 56 163 c31 90 61 173 65 186 8 20 15 23 55 20 l46 -3 59
-170z m1789 -10 l0 -185 -40 0 -40 0 0 185 0 185 40 0 40 0 0 -185z"/>
<path d="M2340 3955 c-20 -25 -8 -50 25 -50 21 0 31 5 33 18 4 21 -14 47 -33
47 -7 0 -18 -7 -25 -15z"/>
<path d="M2616 3954 c-20 -19 -5 -54 23 -54 29 0 45 25 31 49 -13 25 -33 27
-54 5z"/>
<path d="M2468 1745 c-14 -30 3 -55 38 -55 33 0 47 31 28 58 -20 29 -52 28
-66 -3z"/>
<path d="M1961 3826 c-9 -11 -10 -20 -1 -35 13 -26 46 -27 59 -3 20 38 -31 71
-58 38z"/>
<path d="M1687 3674 c-15 -15 -7 -53 13 -59 27 -8 52 12 48 39 -3 21 -46 35
-61 20z"/>
<path d="M2992 3828 c-26 -26 1 -65 38 -53 16 5 20 14 18 33 -3 30 -35 41 -56
20z"/>
<path d="M3261 3661 c-13 -24 8 -55 34 -50 28 6 42 34 26 53 -18 22 -48 20
-60 -3z"/>
<path d="M1450 3275 c-18 -22 -1 -50 31 -50 20 0 24 5 24 30 0 23 -5 31 -21
33 -11 2 -27 -4 -34 -13z"/>
<path d="M1847 1974 c-15 -15 -6 -54 14 -65 18 -9 25 -7 43 10 16 17 18 25 10
39 -11 18 -55 28 -67 16z"/>
<path d="M3500 3275 c-18 -22 -1 -50 31 -50 20 0 24 5 24 30 0 23 -5 31 -21
33 -11 2 -27 -4 -34 -13z"/>
<path d="M3102 1968 c-18 -18 -14 -46 7 -58 25 -13 48 -4 56 21 12 38 -35 65
-63 37z"/>
<path d="M1702 3108 c-30 -30 0 -78 37 -58 26 14 27 46 2 60 -24 13 -24 13
-39 -2z"/>
<path d="M3262 3108 c-30 -30 0 -78 37 -58 26 14 27 46 2 60 -24 13 -24 13
-39 -2z"/>
<path d="M2202 2758 c-19 -19 -14 -56 8 -63 43 -14 69 44 31 65 -24 13 -24 13
-39 -2z"/>
<path d="M2760 2755 c-26 -31 13 -82 44 -56 22 18 20 48 -3 61 -25 13 -26 13
-41 -5z"/>
<path d="M1137 1254 c-4 -4 -7 -54 -7 -111 l0 -103 38 0 c52 0 84 19 105 62
15 30 16 44 7 76 -5 22 -20 46 -33 55 -26 17 -99 31 -110 21z"/>
<path d="M1978 1254 c-5 -4 -8 -22 -8 -41 l0 -33 55 0 c50 0 55 2 61 26 4 14
2 30 -4 36 -13 13 -94 23 -104 12z"/>
<path d="M1601 1175 c-15 -54 -15 -55 14 -55 28 0 29 9 11 60 l-13 35 -12 -40z"/>
</g>
</svg>
