<?xml version="1.0" encoding="UTF-8"?>
<svg width="16px" height="16px" viewBox="0 0 16 16" version="1.1" xmlns="http://www.w3.org/2000/svg" xmlns:xlink="http://www.w3.org/1999/xlink">
    <title>coin_ pdt</title>
    <g id="coin_-pdt" stroke="none" stroke-width="1" fill="none" fill-rule="evenodd">
        <g id="Ticker_og">
            <circle id="Oval" fill="#CA4C12" cx="8" cy="8" r="8"></circle>
            <path d="M8.05398388,2.23382854 L8.96824331,2.23382854 C10.5032962,2.23382854 11.730371,3.63406915 11.730371,5.3235206 C11.730371,7.01297205 10.5032962,8.41321267 8.96824331,8.41321267 L8.40549809,8.41321267 L8.40549809,8.41603817 C8.40549809,8.41603817 7.16874856,8.41603817 7.16874856,8.41603817 C6.02552116,8.41603817 5.07740027,9.40779118 5.07740027,10.6647382 C5.07740027,11.9218871 6.02552116,12.9136401 7.16874856,12.9136401 L7.72988133,12.9136401 L7.72988133,9.92526263 C7.72988133,9.70063481 7.87661433,9.51818778 8.05559633,9.51818778 L8.07978309,9.51818778 C8.26037754,9.51818778 8.40549809,9.70063481 8.40549809,9.92526263 L8.40549809,13.3473554 L8.40549809,13.3497773 C8.40549809,13.5731942 8.26037754,13.7546321 8.08139554,13.7546321 L7.16874856,13.7546321 C5.63208324,13.7546321 4.40500841,12.3543915 4.40500841,10.6647382 C4.40500841,8.97548859 5.63208324,7.57504615 7.16874856,7.57504615 L7.72988133,7.57504615 L7.72988133,7.57222065 L8.96824331,7.57222065 C10.1114707,7.57222065 11.0579792,6.58066946 11.0579792,5.3235206 C11.0579792,4.06637175 10.1114707,3.07461874 8.96824331,3.07461874 L8.40549809,3.07461874 L8.40549809,6.06541805 C8.40549809,6.28883494 8.26037754,6.47027286 8.08139554,6.47027286 L8.05398388,6.47027286 C7.87500187,6.47027286 7.72988133,6.28883494 7.72988133,6.06541805 L7.72988133,2.63868335 C7.72988133,2.41506464 7.87500187,2.23382854 8.05398388,2.23382854 Z" id="Path" fill="#FFFFFF" transform="translate(8.067690, 7.994230) rotate(38.000000) translate(-8.067690, -7.994230) "></path>
        </g>
    </g>
</svg>