<?xml version="1.0" encoding="utf-8"?>
<!-- Generator: Adobe Illustrator 26.3.1, SVG Export Plug-In . SVG Version: 6.00 Build 0)  -->
<svg version="1.1" id="レイヤー_1" xmlns="http://www.w3.org/2000/svg" xmlns:xlink="http://www.w3.org/1999/xlink" x="0px"
	 y="0px" viewBox="0 0 671 553" style="enable-background:new 0 0 671 553;" xml:space="preserve">
<style type="text/css">
	.st0{clip-path:url(#SVGID_00000023255669452999103170000018076871304618516096_);}
	.st1{clip-path:url(#SVGID_00000015326560590239123610000001441695171230400160_);}
	.st2{fill:url(#SVGID_00000090981203609633290690000005335262183801178241_);}
	.st3{fill:#E6EDFF;}
	.st4{fill:#FFFFFF;}
	.st5{fill-rule:evenodd;clip-rule:evenodd;fill:#9ECCEA;}
	.st6{fill:#9ECCEA;}
	.st7{fill:#F2F6FF;}
	.st8{fill:none;stroke:#9ECCEA;stroke-width:1.4103;}
	.st9{fill-rule:evenodd;clip-rule:evenodd;fill:#F2F6FF;}
	.st10{clip-path:url(#SVGID_00000140730046010048036160000006530762415437650091_);}
	.st11{fill:none;stroke:url(#SVGID_00000170984155377298099260000010411708969400487564_);stroke-width:0.7051;}
	.st12{fill:#EBF9F5;}
	.st13{clip-path:url(#SVGID_00000148643367513760293770000004166193360436879010_);}
	.st14{fill:none;stroke:url(#SVGID_00000081643571317692334440000009825666289617655476_);stroke-width:0.7051;}
	.st15{clip-path:url(#SVGID_00000149382041003333860130000005917234353302343090_);}
	.st16{fill:none;stroke:url(#SVGID_00000067949276405578941790000016666605346005951401_);stroke-width:0.7051;}
	.st17{clip-path:url(#SVGID_00000095316078172634209010000008151737162626567343_);}
	.st18{fill:#FF4A4A;}
	.st19{fill:#FFB83D;}
	.st20{fill:#00C543;}
	.st21{opacity:0.3;fill:url(#SVGID_00000052806717420376274440000008620820547376476837_);enable-background:new    ;}
	.st22{fill:#9ECCEA;fill-opacity:0.7;}
	.st23{fill:url(#SVGID_00000095328517964353560420000008785136235996596901_);fill-opacity:0.4;}
	.st24{fill:#FFFFFF;fill-opacity:0.4;}
	.st25{fill:#E3EDFF;}
	.st26{fill:#E3EDFF;stroke:#91CEED;stroke-width:0.977;stroke-linecap:round;stroke-linejoin:round;}
	.st27{fill:none;stroke:#91CEED;stroke-width:0.977;stroke-linecap:round;stroke-linejoin:round;}
	.st28{fill:#FFFFFF;stroke:#91CEED;stroke-width:0.977;stroke-linecap:round;stroke-linejoin:round;}
	.st29{fill:#F8F8DB;stroke:#91CEED;stroke-width:0.977;stroke-miterlimit:10;}
	.st30{fill:#E5D6B3;stroke:#91CEED;stroke-width:0.977;stroke-miterlimit:10;}
	.st31{fill:#E8FAF5;}
	.st32{fill:none;stroke:#9CDED5;stroke-width:0.977;stroke-linecap:round;stroke-linejoin:round;}
	.st33{fill:#E8FAF5;stroke:#9CDED5;stroke-width:0.977;stroke-linecap:round;stroke-linejoin:round;}
	.st34{fill:#FFFFFF;stroke:#9CDED5;stroke-width:0.977;stroke-linecap:round;stroke-linejoin:round;}
	.st35{fill:#E3EDFF;stroke:#9CDED5;stroke-width:1.214;stroke-linecap:round;stroke-linejoin:round;}
	.st36{fill:#FFFFFF;stroke:#9CDED5;stroke-width:1.214;stroke-linecap:round;stroke-linejoin:round;}
	.st37{fill:none;stroke:#9CDED5;stroke-width:1.214;stroke-linecap:round;stroke-linejoin:round;}
	.st38{fill:none;stroke:#9CDED5;stroke-width:1.1049;stroke-linecap:round;stroke-linejoin:round;}
	.st39{fill:none;stroke:#9CDED5;stroke-width:1.3095;stroke-linecap:round;stroke-linejoin:round;}
	.st40{fill:#9CDED5;}
	.st41{fill:none;stroke:#9CDED5;stroke-width:0.5;stroke-miterlimit:10;}
	.st42{fill:#FEF0D3;}
	.st43{fill:#FEF0D3;stroke:#9CDED5;stroke-width:0.8343;stroke-linecap:round;stroke-linejoin:round;}
	.st44{fill:none;stroke:#9CDED5;stroke-width:0.8343;stroke-linecap:round;stroke-linejoin:round;}
	.st45{fill:#FEF0D3;stroke:#9CDED5;stroke-width:0.9105;stroke-linecap:round;stroke-linejoin:round;}
	.st46{fill:#FEF0D3;stroke:#9CDED5;stroke-width:0.977;stroke-linecap:round;stroke-linejoin:round;}
	.st47{fill:#FFFFFF;stroke:#9CDED5;stroke-width:0.8343;stroke-linecap:round;stroke-linejoin:round;}
	.st48{fill:#E8FAF5;stroke:#9CDED5;stroke-width:0.8343;stroke-linecap:round;stroke-linejoin:round;}
	.st49{fill:#FFFFFF;stroke:#9CDED5;stroke-width:0.8699;stroke-linecap:round;stroke-linejoin:round;}
	.st50{fill:none;stroke:#9CDED5;stroke-width:0.8699;stroke-linecap:round;stroke-linejoin:round;}
	.st51{opacity:0.6;}
	.st52{clip-path:url(#SVGID_00000018211766422590928240000000494433715369346469_);fill:#010101;}
	.st53{opacity:0.45;}
	.st54{clip-path:url(#SVGID_00000182519978767970704830000009248981195370110866_);fill:#010101;}
	.st55{opacity:0.8;}
	.st56{clip-path:url(#SVGID_00000175300678891701849540000006990563829836736181_);fill:#010101;}
	.st57{clip-path:url(#SVGID_00000103945946495906607890000005719311698229617855_);fill:#010101;}
	.st58{clip-path:url(#SVGID_00000103954898843189038520000013824785435929647489_);fill:#010101;}
	.st59{clip-path:url(#SVGID_00000056428510685284342670000014128837102608156833_);fill:#010101;}
	.st60{clip-path:url(#SVGID_00000083785969827140568800000000499342667964616584_);fill:#010101;}
	.st61{clip-path:url(#SVGID_00000011741440288528136680000008710735924092058517_);fill:#010101;}
	.st62{clip-path:url(#SVGID_00000088105832589752016920000001746182536623179906_);fill:#010101;}
	.st63{clip-path:url(#SVGID_00000064323735625466539730000006878550929823585664_);fill:#010101;}
	.st64{clip-path:url(#SVGID_00000055697839076121013420000013155897030266655892_);fill:#010101;}
	.st65{clip-path:url(#SVGID_00000071561239349596054550000014318554217870761384_);fill:#010101;}
	.st66{clip-path:url(#SVGID_00000010278851093409429900000001930453245868722087_);fill:#010101;}
	.st67{clip-path:url(#SVGID_00000132054548489752546580000000946332141216132526_);fill:#010101;}
	.st68{clip-path:url(#SVGID_00000031895259154218679120000009280133827023410597_);fill:#010101;}
</style>
<g>
	<g>
		<defs>
			<path id="SVGID_1_" d="M74,77.3c0-9.2,7.4-16.6,16.6-16.6h489.8c9.2,0,16.6,7.4,16.6,16.6v372.8c0,9.2-7.4,16.6-16.6,16.6H90.6
				c-9.2,0-16.6-7.4-16.6-16.6V77.3z"/>
		</defs>
		<clipPath id="SVGID_00000136410353451263674290000006794241307387412889_">
			<use xlink:href="#SVGID_1_"  style="overflow:visible;"/>
		</clipPath>
		<g style="clip-path:url(#SVGID_00000136410353451263674290000006794241307387412889_);">
			<g>
				<g>
					<defs>
						<path id="SVGID_00000039120475832695954110000014766795686954691237_" d="M88.1,60.7h495.1c7.8,0,14.1,6.3,14.1,14.1v386.7
							c0,7.8-6.3,14.1-14.1,14.1H88.1c-7.8,0-14.1-6.3-14.1-14.1V74.8C74,67,80.3,60.7,88.1,60.7z"/>
					</defs>
					<clipPath id="SVGID_00000132064033852239074820000017424154916158846609_">
						<use xlink:href="#SVGID_00000039120475832695954110000014766795686954691237_"  style="overflow:visible;"/>
					</clipPath>
					<g style="clip-path:url(#SVGID_00000132064033852239074820000017424154916158846609_);">
						
							<radialGradient id="SVGID_00000104665041470137909570000010675181355771010229_" cx="37.7741" cy="697.7692" r="1" gradientTransform="matrix(413.0457 -340.8145 -457.9348 -554.9882 304049.3438 400579.4375)" gradientUnits="userSpaceOnUse">
							<stop  offset="0" style="stop-color:#E7F2F9"/>
							<stop  offset="1" style="stop-color:#FFFFFF"/>
						</radialGradient>
						<path style="fill:url(#SVGID_00000104665041470137909570000010675181355771010229_);" d="M88.1,60.7h495.1
							c7.8,0,14.1,6.3,14.1,14.1v386.7c0,7.8-6.3,14.1-14.1,14.1H88.1c-7.8,0-14.1-6.3-14.1-14.1V74.8C74,67,80.3,60.7,88.1,60.7z"
							/>
						<path class="st3" d="M380.9,111.3h179.9c8,0,14.5,6.5,14.5,14.5l0,0c0,8-6.5,14.5-14.5,14.5H380.9c-8,0-14.5-6.5-14.5-14.5
							l0,0C366.4,117.8,372.9,111.3,380.9,111.3z"/>
						<path class="st3" d="M380.6,131.5v-4.9h8.6v-2.7h-8.6v-4.6h9.7v-2.8h-13v17.8h13.3v-2.8H380.6z M405.4,134.3l-5.3-6.9l5.1-6.6
							h-3.4l-3.3,4.4l-3.3-4.4h-3.5l5.1,6.7l-5.3,6.9h3.5l3.5-4.7l3.5,4.7H405.4z M414.7,120.6c-1.9,0-3.4,0.6-4.5,1.9v-1.8h-3v18.5
							h3.2v-6.6c1.1,1.2,2.6,1.8,4.3,1.8c4,0,6.9-2.7,6.9-7C421.6,123.3,418.7,120.6,414.7,120.6z M414.4,131.7c-2.3,0-4-1.6-4-4.2
							c0-2.6,1.8-4.2,4-4.2c2.3,0,4,1.7,4,4.2C418.4,130.1,416.6,131.7,414.4,131.7z M424.1,134.3h3.2v-18.8h-3.2V134.3z M437,134.4
							c4.2,0,7.2-2.9,7.2-7c0-4.1-3-6.9-7.2-6.9c-4.2,0-7.2,2.9-7.2,6.9C429.8,131.6,432.8,134.4,437,134.4z M437,131.7
							c-2.3,0-4-1.6-4-4.2c0-2.6,1.7-4.2,4-4.2c2.3,0,4,1.7,4,4.2C441,130.1,439.3,131.7,437,131.7z M449.7,122.7v-2h-3v13.6h3.2
							v-6.6c0-2.8,1.5-4.2,3.9-4.2c0.2,0,0.5,0,0.7,0.1v-3C452.3,120.6,450.7,121.3,449.7,122.7z M469.3,127.6c0-4.2-2.9-7-6.9-7
							c-4,0-7,2.9-7,6.9s2.9,7,7.5,7c2.3,0,4.2-0.8,5.5-2.2l-1.7-2c-1,1-2.2,1.5-3.7,1.5c-2.4,0-4-1.3-4.4-3.2h10.6
							C469.3,128.2,469.3,127.8,469.3,127.6z M462.5,123.1c2.1,0,3.6,1.3,3.8,3.3h-7.7C458.9,124.4,460.4,123.1,462.5,123.1z
							 M498.1,134.3l0-17.8h-2.7l-6.9,11.8l-7.1-11.8h-2.7v17.8h3.1v-11.6l5.8,9.6h1.5l5.8-9.7l0,11.8H498.1z M507.2,120.6
							c-2.2,0-4.3,0.6-5.7,1.7l1.2,2.3c1-0.8,2.6-1.3,4.1-1.3c2.3,0,3.4,1.1,3.4,2.9v0.2h-3.5c-4.1,0-5.6,1.8-5.6,4
							c0,2.4,2,4.1,5.1,4.1c2,0,3.5-0.7,4.3-1.8v1.6h3v-7.9C513.4,122.4,511.2,120.6,507.2,120.6z M506.8,132.1
							c-1.6,0-2.6-0.7-2.6-1.9c0-1,0.6-1.8,2.7-1.8h3.3v1.6C509.7,131.4,508.4,132.1,506.8,132.1z M520,122.7v-2h-3v13.6h3.2v-6.6
							c0-2.8,1.5-4.2,3.9-4.2c0.2,0,0.5,0,0.7,0.1v-3C522.5,120.6,520.9,121.3,520,122.7z M537.2,134.3h3.9l-6.2-7.9l5.7-5.7h-3.8
							l-6.6,6.1v-11.4H527v18.8h3.2v-3.6l2.4-2.2L537.2,134.3z M554.7,127.6c0-4.2-2.9-7-6.9-7c-4,0-7,2.9-7,6.9s2.9,7,7.5,7
							c2.3,0,4.2-0.8,5.5-2.2l-1.7-2c-1,1-2.2,1.5-3.7,1.5c-2.4,0-4-1.3-4.4-3.2h10.6C554.7,128.2,554.7,127.8,554.7,127.6z
							 M547.9,123.1c2.1,0,3.6,1.3,3.8,3.3H544C544.3,124.4,545.8,123.1,547.9,123.1z M564.5,131.3c-0.5,0.4-1.1,0.6-1.8,0.6
							c-1.2,0-1.9-0.7-1.9-2v-6.4h3.6v-2.5h-3.6v-3.1h-3.2v3.1h-2.2v2.5h2.2v6.5c0,3,1.7,4.6,4.7,4.6c1.1,0,2.3-0.3,3-0.9
							L564.5,131.3z"/>
						<path class="st3" d="M488.3,145.9h80.6c3.6,0,6.5,2.9,6.5,6.5l0,0c0,3.6-2.9,6.5-6.5,6.5h-80.6c-3.6,0-6.5-2.9-6.5-6.5l0,0
							C481.8,148.8,484.7,145.9,488.3,145.9z"/>
						<path class="st3" d="M488.1,154.7v-2.2h3.8v-1.2h-3.8v-2.1h4.3V148h-5.8v8h6v-1.2H488.1z M499.2,155.9l-2.4-3.1l2.3-3h-1.5
							l-1.5,2l-1.5-2H493l2.3,3l-2.4,3.1h1.6l1.6-2.1l1.6,2.1H499.2z M503.4,149.8c-0.8,0-1.5,0.3-2,0.9v-0.8H500v8.3h1.4v-2.9
							c0.5,0.6,1.2,0.8,1.9,0.8c1.8,0,3.1-1.2,3.1-3.1C506.5,151,505.1,149.8,503.4,149.8z M503.2,154.8c-1,0-1.8-0.7-1.8-1.9
							c0-1.2,0.8-1.9,1.8-1.9s1.8,0.7,1.8,1.9C505,154,504.2,154.8,503.2,154.8z M507.6,155.9h1.4v-8.4h-1.4V155.9z M513.3,156
							c1.9,0,3.2-1.3,3.2-3.1s-1.4-3.1-3.2-3.1c-1.9,0-3.2,1.3-3.2,3.1S511.5,156,513.3,156z M513.3,154.8c-1,0-1.8-0.7-1.8-1.9
							c0-1.2,0.8-1.9,1.8-1.9c1,0,1.8,0.7,1.8,1.9C515.1,154,514.4,154.8,513.3,154.8z M519,150.7v-0.9h-1.4v6.1h1.4V153
							c0-1.2,0.7-1.9,1.8-1.9c0.1,0,0.2,0,0.3,0v-1.4C520.2,149.8,519.5,150.1,519,150.7z M527.8,152.9c0-1.9-1.3-3.1-3.1-3.1
							c-1.8,0-3.1,1.3-3.1,3.1s1.3,3.1,3.4,3.1c1,0,1.9-0.3,2.4-1l-0.8-0.9c-0.4,0.4-1,0.7-1.6,0.7c-1.1,0-1.8-0.6-2-1.5h4.8
							C527.8,153.2,527.8,153,527.8,152.9z M524.8,150.9c0.9,0,1.6,0.6,1.7,1.5H523C523.2,151.5,523.8,150.9,524.8,150.9z
							 M540.7,155.9l0-8h-1.2l-3.1,5.3l-3.2-5.3H532v8h1.4v-5.2l2.6,4.3h0.7l2.6-4.4l0,5.3H540.7z M544.8,149.8
							c-1,0-1.9,0.2-2.6,0.8l0.6,1c0.5-0.4,1.2-0.6,1.8-0.6c1,0,1.5,0.5,1.5,1.3v0.1h-1.6c-1.8,0-2.5,0.8-2.5,1.8
							c0,1.1,0.9,1.8,2.3,1.8c0.9,0,1.6-0.3,1.9-0.8v0.7h1.3v-3.6C547.5,150.6,546.5,149.8,544.8,149.8z M544.6,155
							c-0.7,0-1.2-0.3-1.2-0.8c0-0.4,0.3-0.8,1.2-0.8h1.5v0.7C545.9,154.6,545.3,155,544.6,155z M550.5,150.7v-0.9h-1.4v6.1h1.4V153
							c0-1.2,0.7-1.9,1.8-1.9c0.1,0,0.2,0,0.3,0v-1.4C551.6,149.8,550.9,150.1,550.5,150.7z M558.2,155.9h1.7l-2.8-3.5l2.5-2.5H558
							l-2.9,2.7v-5.1h-1.4v8.4h1.4v-1.6l1.1-1L558.2,155.9z M566,152.9c0-1.9-1.3-3.1-3.1-3.1c-1.8,0-3.1,1.3-3.1,3.1
							s1.3,3.1,3.4,3.1c1,0,1.9-0.3,2.4-1l-0.8-0.9c-0.4,0.4-1,0.7-1.6,0.7c-1.1,0-1.8-0.6-2-1.5h4.8C566,153.2,566,153,566,152.9z
							 M563,150.9c0.9,0,1.6,0.6,1.7,1.5h-3.4C561.4,151.5,562,150.9,563,150.9z M570.4,154.6c-0.2,0.2-0.5,0.2-0.8,0.2
							c-0.5,0-0.8-0.3-0.8-0.9V151h1.6v-1.1h-1.6v-1.4h-1.4v1.4h-1v1.1h1v2.9c0,1.3,0.8,2,2.1,2c0.5,0,1-0.1,1.4-0.4L570.4,154.6z"
							/>
						<path class="st4" d="M102.9,189.1c0-6.2,5.1-11.3,11.3-11.3H251c6.2,0,11.3,5.1,11.3,11.3v5.6c0,6.2-5.1,11.3-11.3,11.3H114.2
							c-6.2,0-11.3-5.1-11.3-11.3V189.1z"/>
						<path class="st5" d="M247.5,186.9c-2.4,0-4.3,1.9-4.3,4.3c0,2.4,1.9,4.3,4.3,4.3c2.4,0,4.3-1.9,4.3-4.3
							C251.8,188.8,249.9,186.9,247.5,186.9z M241.9,191.2c0-3.1,2.5-5.6,5.6-5.6s5.6,2.5,5.6,5.6s-2.5,5.6-5.6,5.6
							S241.9,194.3,241.9,191.2z"/>
						<path class="st5" d="M250.6,194.3c0.2-0.2,0.6-0.2,0.9,0l2.8,2.8c0.2,0.2,0.2,0.6,0,0.9c-0.2,0.2-0.6,0.2-0.9,0l-2.8-2.8
							C250.3,194.9,250.3,194.6,250.6,194.3z"/>
						<path class="st6" d="M114.2,179.2H251v-2.8H114.2V179.2z M260.9,189.1v5.6h2.8v-5.6H260.9z M251,204.6H114.2v2.8H251V204.6z
							 M104.3,194.8v-5.6h-2.8v5.6H104.3z M114.2,204.6c-5.5,0-9.9-4.4-9.9-9.9h-2.8c0,7,5.7,12.7,12.7,12.7V204.6z M260.9,194.8
							c0,5.5-4.4,9.9-9.9,9.9v2.8c7,0,12.7-5.7,12.7-12.7H260.9z M251,179.2c5.5,0,9.9,4.4,9.9,9.9h2.8c0-7-5.7-12.7-12.7-12.7
							V179.2z M114.2,176.4c-7,0-12.7,5.7-12.7,12.7h2.8c0-5.5,4.4-9.9,9.9-9.9V176.4z"/>
						<path class="st7" d="M389.3,179H433c5.8,0,10.6,4.7,10.6,10.6v4.7c0,5.8-4.7,10.6-10.6,10.6h-43.6c-5.8,0-10.6-4.7-10.6-10.6
							v-4.7C378.8,183.8,383.5,179,389.3,179z"/>
						<path class="st8" d="M389.3,179H433c5.8,0,10.6,4.7,10.6,10.6v4.7c0,5.8-4.7,10.6-10.6,10.6h-43.6c-5.8,0-10.6-4.7-10.6-10.6
							v-4.7C378.8,183.8,383.5,179,389.3,179z"/>
						<path class="st7" d="M461.2,179h43.6c5.8,0,10.6,4.7,10.6,10.6v4.7c0,5.8-4.7,10.6-10.6,10.6h-43.6c-5.8,0-10.6-4.7-10.6-10.6
							v-4.7C450.6,183.8,455.3,179,461.2,179z"/>
						<path class="st8" d="M461.2,179h43.6c5.8,0,10.6,4.7,10.6,10.6v4.7c0,5.8-4.7,10.6-10.6,10.6h-43.6c-5.8,0-10.6-4.7-10.6-10.6
							v-4.7C450.6,183.8,455.3,179,461.2,179z"/>
						<path class="st7" d="M533,178.5h31c5.8,0,10.6,4.7,10.6,10.6v5.6c0,5.8-4.7,10.6-10.6,10.6h-31c-5.8,0-10.6-4.7-10.6-10.6
							v-5.6C522.4,183.3,527.2,178.5,533,178.5z"/>
						<path class="st6" d="M521.7,189.1c0-6.2,5.1-11.3,11.3-11.3h5.6c6.2,0,11.3,5.1,11.3,11.3v5.6c0,6.2-5.1,11.3-11.3,11.3H533
							c-6.2,0-11.3-5.1-11.3-11.3V189.1z"/>
						<path class="st9" d="M559.1,187.7c0-0.4,0.3-0.7,0.7-0.7h9.2c0.4,0,0.7,0.3,0.7,0.7c0,0.4-0.3,0.7-0.7,0.7h-9.2
							C559.4,188.4,559.1,188.1,559.1,187.7z"/>
						<path class="st9" d="M559.1,191.9c0-0.4,0.3-0.7,0.7-0.7h9.2c0.4,0,0.7,0.3,0.7,0.7c0,0.4-0.3,0.7-0.7,0.7h-9.2
							C559.4,192.6,559.1,192.3,559.1,191.9z"/>
						<path class="st9" d="M559.1,196.2c0-0.4,0.3-0.7,0.7-0.7h9.2c0.4,0,0.7,0.3,0.7,0.7c0,0.4-0.3,0.7-0.7,0.7h-9.2
							C559.4,196.9,559.1,196.6,559.1,196.2z"/>
						<path class="st9" d="M555.6,187.7c0-0.4,0.3-0.7,0.7-0.7h0c0.4,0,0.7,0.3,0.7,0.7c0,0.4-0.3,0.7-0.7,0.7h0
							C555.9,188.4,555.6,188.1,555.6,187.7z"/>
						<path class="st9" d="M555.6,191.9c0-0.4,0.3-0.7,0.7-0.7h0c0.4,0,0.7,0.3,0.7,0.7c0,0.4-0.3,0.7-0.7,0.7h0
							C555.9,192.6,555.6,192.3,555.6,191.9z"/>
						<path class="st9" d="M555.6,196.2c0-0.4,0.3-0.7,0.7-0.7h0c0.4,0,0.7,0.3,0.7,0.7c0,0.4-0.3,0.7-0.7,0.7h0
							C555.9,196.9,555.6,196.6,555.6,196.2z"/>
						<path class="st8" d="M533,178.5h31c5.8,0,10.6,4.7,10.6,10.6v5.6c0,5.8-4.7,10.6-10.6,10.6h-31c-5.8,0-10.6-4.7-10.6-10.6
							v-5.6C522.4,183.3,527.2,178.5,533,178.5z"/>
						<path class="st4" d="M102.9,237.1c0-6.2,5.1-11.3,11.3-11.3h125.5c6.2,0,11.3,5.1,11.3,11.3v203.8c0,6.2-5.1,11.3-11.3,11.3
							H114.2c-6.2,0-11.3-5.1-11.3-11.3V237.1z"/>
						<g>
							<defs>
								<path id="SVGID_00000176024643616966364750000009621925895812912831_" d="M114.2,225.8h125.5c6.2,0,11.3,5.1,11.3,11.3
									v203.8c0,6.2-5.1,11.3-11.3,11.3H114.2c-6.2,0-11.3-5.1-11.3-11.3V237.1C102.9,230.8,108,225.8,114.2,225.8z"/>
							</defs>
							<clipPath id="SVGID_00000074440868161459918180000007775934402565027505_">
								<use xlink:href="#SVGID_00000176024643616966364750000009621925895812912831_"  style="overflow:visible;"/>
							</clipPath>
							<g style="clip-path:url(#SVGID_00000074440868161459918180000007775934402565027505_);">
								<g>
									<defs>
										
											<rect id="SVGID_00000085228163214623168030000005637635541832193410_" x="121.7" y="235.3" width="110.9" height="125.2"/>
									</defs>
									<clipPath id="SVGID_00000108268402618935724090000016238210709369673914_">
										<use xlink:href="#SVGID_00000085228163214623168030000005637635541832193410_"  style="overflow:visible;"/>
									</clipPath>
								</g>
								<rect x="103.6" y="226.5" class="st8" width="146.7" height="143.1"/>
								
									<radialGradient id="SVGID_00000094612844926537128480000008622384074426356871_" cx="35.8721" cy="688.489" r="1" gradientTransform="matrix(11.4889 1.0645 1.4416 -15.5585 -1253.8513 11097.5137)" gradientUnits="userSpaceOnUse">
									<stop  offset="5.208330e-03" style="stop-color:#ECF5FC"/>
									<stop  offset="1" style="stop-color:#CEE4F3"/>
								</radialGradient>
								
									<line style="fill:none;stroke:url(#SVGID_00000094612844926537128480000008622384074426356871_);stroke-width:0.7051;" x1="102.9" y1="423.6" x2="251" y2="423.6"/>
							</g>
						</g>
						<path class="st8" d="M114.2,226.5h125.5c5.8,0,10.6,4.7,10.6,10.6v203.8c0,5.8-4.7,10.6-10.6,10.6H114.2
							c-5.8,0-10.6-4.7-10.6-10.6V237.1C103.6,231.2,108.4,226.5,114.2,226.5z"/>
						<path class="st3" d="M215.7,390.1L215.7,390.1c3.9,0,7.1,3.2,7.1,7.1v0c0,3.9-3.2,7.1-7.1,7.1h0c-3.9,0-7.1-3.2-7.1-7.1v0
							C208.7,393.2,211.9,390.1,215.7,390.1z"/>
						<path class="st12" d="M114.9,391.5h37.4c1.2,0,2.1,0.9,2.1,2.1v4.2c0,1.2-0.9,2.1-2.1,2.1h-37.4c-1.2,0-2.1-0.9-2.1-2.1v-4.2
							C112.8,392.4,113.7,391.5,114.9,391.5z"/>
						<path class="st3" d="M114.9,377.4h43.7c1.2,0,2.1,0.9,2.1,2.1v4.2c0,1.2-0.9,2.1-2.1,2.1h-43.7c-1.2,0-2.1-0.9-2.1-2.1v-4.2
							C112.8,378.3,113.7,377.4,114.9,377.4z"/>
						<path class="st12" d="M114.9,402.8h52.2c1.2,0,2.1,0.9,2.1,2.1v4.2c0,1.2-0.9,2.1-2.1,2.1h-52.2c-1.2,0-2.1-0.9-2.1-2.1v-4.2
							C112.8,403.7,113.7,402.8,114.9,402.8z"/>
						<path class="st12" d="M200.2,433.1H239c1.2,0,2.1,0.9,2.1,2.1v4.2c0,1.2-0.9,2.1-2.1,2.1h-38.8c-1.2,0-2.1-0.9-2.1-2.1v-4.2
							C198.1,434,199.1,433.1,200.2,433.1z"/>
						<path class="st12" d="M200.2,377.4H239c1.2,0,2.1,0.9,2.1,2.1v4.2c0,1.2-0.9,2.1-2.1,2.1h-38.8c-1.2,0-2.1-0.9-2.1-2.1v-4.2
							C198.1,378.3,199.1,377.4,200.2,377.4z"/>
						<path class="st12" d="M229.1,392.9h9.9c1.2,0,2.1,0.9,2.1,2.1v4.2c0,1.2-0.9,2.1-2.1,2.1h-9.9c-1.2,0-2.1-0.9-2.1-2.1V395
							C227,393.8,228,392.9,229.1,392.9z"/>
						<g>
							<defs>
								<path id="SVGID_00000070809782053947687380000002807282741925217693_" d="M276.4,225.8h125.5c6.2,0,11.3,5.1,11.3,11.3
									v203.8c0,6.2-5.1,11.3-11.3,11.3H276.4c-6.2,0-11.3-5.1-11.3-11.3V237.1C265.1,230.8,270.2,225.8,276.4,225.8z"/>
							</defs>
							<clipPath id="SVGID_00000051365547470698404940000010800141509172447167_">
								<use xlink:href="#SVGID_00000070809782053947687380000002807282741925217693_"  style="overflow:visible;"/>
							</clipPath>
							<g style="clip-path:url(#SVGID_00000051365547470698404940000010800141509172447167_);">
								<path class="st4" d="M276.4,225.8h125.5c6.2,0,11.3,5.1,11.3,11.3v203.8c0,6.2-5.1,11.3-11.3,11.3H276.4
									c-6.2,0-11.3-5.1-11.3-11.3V237.1C265.1,230.8,270.2,225.8,276.4,225.8z"/>
								<g>
									<defs>
										
											<rect id="SVGID_00000114066603473814092000000000002144382907596694_" x="283.9" y="235.3" width="110.9" height="125.2"/>
									</defs>
									<clipPath id="SVGID_00000180327430692866044520000011977185142126505399_">
										<use xlink:href="#SVGID_00000114066603473814092000000000002144382907596694_"  style="overflow:visible;"/>
									</clipPath>
								</g>
								<rect x="265.8" y="226.5" class="st8" width="146.7" height="143.1"/>
								
									<radialGradient id="SVGID_00000057866287199248318610000016036216796074075809_" cx="35.8721" cy="688.489" r="1" gradientTransform="matrix(11.4889 1.0645 1.4416 -15.5585 -1091.6703 11097.5137)" gradientUnits="userSpaceOnUse">
									<stop  offset="5.208330e-03" style="stop-color:#ECF5FC"/>
									<stop  offset="1" style="stop-color:#CEE4F3"/>
								</radialGradient>
								
									<line style="fill:none;stroke:url(#SVGID_00000057866287199248318610000016036216796074075809_);stroke-width:0.7051;" x1="265.1" y1="423.6" x2="413.2" y2="423.6"/>
							</g>
						</g>
						<path class="st8" d="M276.4,226.5h125.5c5.8,0,10.6,4.7,10.6,10.6v203.8c0,5.8-4.7,10.6-10.6,10.6H276.4
							c-5.8,0-10.6-4.7-10.6-10.6V237.1C265.8,231.2,270.5,226.5,276.4,226.5z"/>
						<path class="st3" d="M377.9,390.1L377.9,390.1c3.9,0,7.1,3.2,7.1,7.1v0c0,3.9-3.2,7.1-7.1,7.1h0c-3.9,0-7.1-3.2-7.1-7.1v0
							C370.9,393.2,374,390.1,377.9,390.1z"/>
						<path class="st12" d="M277.1,391.5h37.4c1.2,0,2.1,0.9,2.1,2.1v4.2c0,1.2-0.9,2.1-2.1,2.1h-37.4c-1.2,0-2.1-0.9-2.1-2.1v-4.2
							C275,392.4,275.9,391.5,277.1,391.5z"/>
						<path class="st3" d="M277.1,377.4h43.7c1.2,0,2.1,0.9,2.1,2.1v4.2c0,1.2-0.9,2.1-2.1,2.1h-43.7c-1.2,0-2.1-0.9-2.1-2.1v-4.2
							C275,378.3,275.9,377.4,277.1,377.4z"/>
						<path class="st12" d="M277.1,402.8h52.2c1.2,0,2.1,0.9,2.1,2.1v4.2c0,1.2-0.9,2.1-2.1,2.1h-52.2c-1.2,0-2.1-0.9-2.1-2.1v-4.2
							C275,403.7,275.9,402.8,277.1,402.8z"/>
						<path class="st12" d="M362.4,433.1h38.8c1.2,0,2.1,0.9,2.1,2.1v4.2c0,1.2-0.9,2.1-2.1,2.1h-38.8c-1.2,0-2.1-0.9-2.1-2.1v-4.2
							C360.3,434,361.2,433.1,362.4,433.1z"/>
						<path class="st12" d="M362.4,377.4h38.8c1.2,0,2.1,0.9,2.1,2.1v4.2c0,1.2-0.9,2.1-2.1,2.1h-38.8c-1.2,0-2.1-0.9-2.1-2.1v-4.2
							C360.3,378.3,361.2,377.4,362.4,377.4z"/>
						<path class="st12" d="M391.3,392.9h9.9c1.2,0,2.1,0.9,2.1,2.1v4.2c0,1.2-0.9,2.1-2.1,2.1h-9.9c-1.2,0-2.1-0.9-2.1-2.1V395
							C389.2,393.8,390.2,392.9,391.3,392.9z"/>
						<g>
							<defs>
								<path id="SVGID_00000057843379603229947200000014785471230243989913_" d="M438.6,225.8h125.5c6.2,0,11.3,5.1,11.3,11.3
									v203.8c0,6.2-5.1,11.3-11.3,11.3H438.6c-6.2,0-11.3-5.1-11.3-11.3V237.1C427.3,230.8,432.3,225.8,438.6,225.8z"/>
							</defs>
							<clipPath id="SVGID_00000091721043390592848460000012427763119374326411_">
								<use xlink:href="#SVGID_00000057843379603229947200000014785471230243989913_"  style="overflow:visible;"/>
							</clipPath>
							<g style="clip-path:url(#SVGID_00000091721043390592848460000012427763119374326411_);">
								<path class="st4" d="M438.6,225.8h125.5c6.2,0,11.3,5.1,11.3,11.3v203.8c0,6.2-5.1,11.3-11.3,11.3H438.6
									c-6.2,0-11.3-5.1-11.3-11.3V237.1C427.3,230.8,432.3,225.8,438.6,225.8z"/>
								<g>
									<defs>
										
											<rect id="SVGID_00000068654923175688158300000009895700640647005624_" x="445.6" y="235.7" width="110.9" height="125.2"/>
									</defs>
									<clipPath id="SVGID_00000126309710106669639250000007402441247395175812_">
										<use xlink:href="#SVGID_00000068654923175688158300000009895700640647005624_"  style="overflow:visible;"/>
									</clipPath>
								</g>
								<rect x="428" y="226.5" class="st8" width="146.7" height="143.1"/>
								
									<radialGradient id="SVGID_00000031205132443197528310000001371966480261158331_" cx="35.8721" cy="688.489" r="1" gradientTransform="matrix(11.4889 1.0645 1.4416 -15.5585 -929.4893 11097.5137)" gradientUnits="userSpaceOnUse">
									<stop  offset="5.208330e-03" style="stop-color:#ECF5FC"/>
									<stop  offset="1" style="stop-color:#CEE4F3"/>
								</radialGradient>
								
									<line style="fill:none;stroke:url(#SVGID_00000031205132443197528310000001371966480261158331_);stroke-width:0.7051;" x1="427.3" y1="423.6" x2="575.4" y2="423.6"/>
							</g>
						</g>
						<path class="st8" d="M438.6,226.5h125.5c5.8,0,10.6,4.7,10.6,10.6v203.8c0,5.8-4.7,10.6-10.6,10.6H438.6
							c-5.8,0-10.6-4.7-10.6-10.6V237.1C428,231.2,432.7,226.5,438.6,226.5z"/>
						<path class="st3" d="M540.1,390.1L540.1,390.1c3.9,0,7.1,3.2,7.1,7.1v0c0,3.9-3.2,7.1-7.1,7.1h0c-3.9,0-7.1-3.2-7.1-7.1v0
							C533.1,393.2,536.2,390.1,540.1,390.1z"/>
						<path class="st12" d="M439.3,391.5h37.4c1.2,0,2.1,0.9,2.1,2.1v4.2c0,1.2-0.9,2.1-2.1,2.1h-37.4c-1.2,0-2.1-0.9-2.1-2.1v-4.2
							C437.2,392.4,438.1,391.5,439.3,391.5z"/>
						<path class="st3" d="M439.3,377.4H483c1.2,0,2.1,0.9,2.1,2.1v4.2c0,1.2-0.9,2.1-2.1,2.1h-43.7c-1.2,0-2.1-0.9-2.1-2.1v-4.2
							C437.2,378.3,438.1,377.4,439.3,377.4z"/>
						<path class="st12" d="M439.3,402.8h52.2c1.2,0,2.1,0.9,2.1,2.1v4.2c0,1.2-0.9,2.1-2.1,2.1h-52.2c-1.2,0-2.1-0.9-2.1-2.1v-4.2
							C437.2,403.7,438.1,402.8,439.3,402.8z"/>
						<path class="st12" d="M524.6,433.1h38.8c1.2,0,2.1,0.9,2.1,2.1v4.2c0,1.2-0.9,2.1-2.1,2.1h-38.8c-1.2,0-2.1-0.9-2.1-2.1v-4.2
							C522.5,434,523.4,433.1,524.6,433.1z"/>
						<path class="st12" d="M524.6,377.4h38.8c1.2,0,2.1,0.9,2.1,2.1v4.2c0,1.2-0.9,2.1-2.1,2.1h-38.8c-1.2,0-2.1-0.9-2.1-2.1v-4.2
							C522.5,378.3,523.4,377.4,524.6,377.4z"/>
						<path class="st12" d="M553.5,392.9h9.9c1.2,0,2.1,0.9,2.1,2.1v4.2c0,1.2-0.9,2.1-2.1,2.1h-9.9c-1.2,0-2.1-0.9-2.1-2.1V395
							C551.4,393.8,552.3,392.9,553.5,392.9z"/>
						<g>
							<g>
								<defs>
									<path id="SVGID_00000047744840697661217820000002375913056089926300_" d="M73.7,80c0-10.6,8.6-19.3,19.3-19.3h485.3
										c10.6,0,19.3,8.6,19.3,19.3v19.7H73.7V80z"/>
								</defs>
								<clipPath id="SVGID_00000003082575569348950060000005432980720365104820_">
									<use xlink:href="#SVGID_00000047744840697661217820000002375913056089926300_"  style="overflow:visible;"/>
								</clipPath>
								<g style="clip-path:url(#SVGID_00000003082575569348950060000005432980720365104820_);">
									<path class="st4" d="M73.7,80c0-10.6,8.6-19.3,19.3-19.3h485.3c10.6,0,19.3,8.6,19.3,19.3v19.7H73.7V80z"/>
									<circle class="st18" cx="93" cy="80" r="5.8"/>
									<circle class="st19" cx="112.3" cy="80" r="5.8"/>
									<circle class="st20" cx="131.5" cy="80" r="5.8"/>
									
										<linearGradient id="SVGID_00000029738896323820940760000002055480669473860251_" gradientUnits="userSpaceOnUse" x1="597.6887" y1="454.6458" x2="73.6887" y2="454.6458" gradientTransform="matrix(1 0 0 -1 0 553.89)">
										<stop  offset="0" style="stop-color:#F2F6FF"/>
										<stop  offset="1" style="stop-color:#F2F6FF;stop-opacity:0"/>
									</linearGradient>
									
										<rect x="73.7" y="98.8" style="opacity:0.3;fill:url(#SVGID_00000029738896323820940760000002055480669473860251_);enable-background:new    ;" width="524" height="1"/>
								</g>
							</g>
						</g>
					</g>
				</g>
			</g>
		</g>
	</g>
</g>
<g>
	<path class="st22" d="M441,35.3c0-5.7,4.6-10.3,10.3-10.3h113.8c5.7,0,10.3,4.6,10.3,10.3v25.4H441V35.3z"/>
	
		<linearGradient id="SVGID_00000092427438900681827880000018049352886704188807_" gradientUnits="userSpaceOnUse" x1="443.4568" y1="518.6827" x2="560.2708" y2="503.7847" gradientTransform="matrix(1 0 0 -1 0 553.89)">
		<stop  offset="0" style="stop-color:#FFFFFF"/>
		<stop  offset="1" style="stop-color:#FFFFFF;stop-opacity:0"/>
	</linearGradient>
	<path style="fill:url(#SVGID_00000092427438900681827880000018049352886704188807_);fill-opacity:0.4;" d="M441,35.3
		c0-5.7,4.6-10.3,10.3-10.3h113.8c5.7,0,10.3,4.6,10.3,10.3v25.4H441V35.3z"/>
	<path class="st4" d="M470.3,36.5h9.2V39h-5.8v3h5.3v2.4h-5.3v5h-3.3V36.5z M480.5,39.6h2.6V41c0.1-0.2,0.2-0.3,0.3-0.5
		c0.2-0.2,0.3-0.4,0.6-0.5c0.2-0.2,0.4-0.3,0.7-0.4c0.3-0.1,0.6-0.1,0.9-0.1c0.2,0,0.4,0,0.5,0c0.1,0,0.2,0,0.3,0.1V42
		c-0.1,0-0.2-0.1-0.4-0.1c-0.2,0-0.5-0.1-0.8-0.1c-0.7,0-1.1,0.2-1.4,0.6c-0.3,0.4-0.4,0.8-0.4,1.4v5.7h-2.8V39.6z M491.7,49.7
		c-0.7,0-1.3-0.1-1.9-0.3c-0.6-0.2-1.1-0.5-1.6-0.9c-0.5-0.4-0.8-0.9-1.1-1.6c-0.3-0.6-0.4-1.4-0.4-2.2v-0.4c0-0.8,0.1-1.5,0.4-2.1
		c0.3-0.6,0.6-1.1,1.1-1.5c0.5-0.4,1-0.7,1.6-0.9s1.3-0.3,1.9-0.3s1.3,0.1,1.9,0.3s1.1,0.5,1.6,0.9c0.5,0.4,0.8,0.9,1.1,1.5
		c0.3,0.6,0.4,1.3,0.4,2.1v0.4c0,0.8-0.1,1.6-0.4,2.2c-0.3,0.6-0.6,1.2-1.1,1.6c-0.5,0.4-1,0.7-1.6,0.9
		C493,49.6,492.4,49.7,491.7,49.7z M491.7,47.3c0.7,0,1.2-0.2,1.5-0.7c0.4-0.5,0.5-1.1,0.5-2v-0.4c0-0.7-0.2-1.3-0.5-1.8
		c-0.4-0.5-0.9-0.7-1.5-0.7c-0.7,0-1.2,0.2-1.5,0.7c-0.4,0.5-0.5,1.1-0.5,1.8v0.4c0,0.9,0.2,1.5,0.5,2
		C490.5,47.1,491,47.3,491.7,47.3z M497.8,39.6h2.6V41c0.2-0.4,0.6-0.8,1.1-1.1c0.5-0.3,1.2-0.5,2.1-0.5c1.2,0,2.1,0.3,2.6,1
		c0.6,0.6,0.9,1.5,0.9,2.7v6.4h-2.8v-5.7c0-0.6-0.1-1.1-0.4-1.4c-0.3-0.3-0.7-0.5-1.4-0.5c-0.3,0-0.6,0.1-0.9,0.2
		c-0.2,0.1-0.5,0.2-0.6,0.4c-0.2,0.2-0.3,0.4-0.4,0.6c-0.1,0.2-0.1,0.5-0.1,0.7v5.7h-2.8V39.6z M512.8,49.5c-0.6,0-1.1-0.1-1.6-0.2
		c-0.4-0.1-0.8-0.3-1.1-0.6c-0.3-0.3-0.5-0.6-0.6-1.1c-0.1-0.4-0.2-1-0.2-1.6V42h-1.2v-2.3h1.2v-2.2h2.8v2.2h2.2V42h-2.2v3.7
		c0,0.6,0.1,0.9,0.3,1.2c0.2,0.2,0.5,0.4,1.1,0.4c0.4,0,0.7,0,1.1-0.1v2.3c-0.2,0-0.5,0-0.7,0.1C513.5,49.5,513.2,49.5,512.8,49.5z
		 M520.4,49.7c-0.7,0-1.4-0.1-2-0.3c-0.6-0.2-1.2-0.5-1.6-0.9c-0.5-0.4-0.8-0.9-1.1-1.6c-0.3-0.6-0.4-1.4-0.4-2.2v-0.4
		c0-0.8,0.1-1.5,0.4-2.1c0.3-0.6,0.6-1.1,1-1.5c0.4-0.4,1-0.7,1.6-0.9c0.6-0.2,1.3-0.3,1.9-0.3c1.6,0,2.8,0.4,3.7,1.3
		c0.8,0.8,1.2,2,1.2,3.6v1h-6.9c0,0.4,0.1,0.7,0.2,1c0.1,0.3,0.3,0.5,0.5,0.6c0.2,0.2,0.4,0.3,0.7,0.4c0.3,0.1,0.5,0.1,0.8,0.1
		c0.5,0,1-0.1,1.3-0.2c0.3-0.2,0.5-0.4,0.6-0.7h2.6c-0.2,1.1-0.7,1.9-1.5,2.4C522.7,49.4,521.6,49.7,520.4,49.7z M520.3,41.6
		c-0.3,0-0.5,0-0.8,0.1c-0.2,0.1-0.5,0.2-0.6,0.3c-0.2,0.1-0.3,0.3-0.5,0.5c-0.1,0.2-0.2,0.5-0.2,0.8h4.1c0-0.3-0.1-0.6-0.2-0.9
		c-0.1-0.2-0.3-0.4-0.4-0.5c-0.2-0.1-0.4-0.2-0.6-0.3C520.8,41.7,520.5,41.6,520.3,41.6z M526.2,39.6h2.6V41
		c0.2-0.4,0.6-0.8,1.1-1.1c0.5-0.3,1.2-0.5,2.1-0.5c1.2,0,2.1,0.3,2.6,1c0.6,0.6,0.9,1.5,0.9,2.7v6.4h-2.8v-5.7
		c0-0.6-0.1-1.1-0.4-1.4c-0.3-0.3-0.7-0.5-1.3-0.5c-0.3,0-0.6,0.1-0.9,0.2c-0.2,0.1-0.4,0.2-0.6,0.4c-0.2,0.2-0.3,0.4-0.4,0.6
		c-0.1,0.2-0.1,0.5-0.1,0.7v5.7h-2.8V39.6z M540.9,49.7c-0.6,0-1.2-0.1-1.7-0.3c-0.5-0.2-1-0.5-1.3-1c-0.4-0.4-0.7-0.9-0.9-1.6
		c-0.2-0.6-0.3-1.4-0.3-2.2v-0.4c0-1.6,0.4-2.8,1.1-3.6c0.7-0.8,1.8-1.3,3.1-1.3c0.6,0,1.1,0.1,1.6,0.4c0.5,0.2,0.9,0.6,1.3,1.1
		v-4.4h2.8v12.9h-2.6v-1.3c-0.1,0.2-0.3,0.4-0.5,0.6c-0.2,0.2-0.4,0.4-0.7,0.5s-0.5,0.3-0.9,0.4C541.6,49.6,541.2,49.7,540.9,49.7z
		 M541.5,47.3c0.6,0,1.1-0.2,1.5-0.6c0.4-0.4,0.6-1,0.6-1.8V44c0-0.7-0.2-1.3-0.6-1.7c-0.4-0.4-0.9-0.6-1.5-0.6
		c-0.6,0-1.1,0.2-1.4,0.6c-0.4,0.4-0.5,1-0.5,1.9v0.4c0,0.9,0.2,1.6,0.6,2C540.5,47.1,541,47.3,541.5,47.3z"/>
	<path class="st24" d="M575.5,60.7v0.7h0.7v-0.7H575.5z M441,60.7h-0.7v0.7h0.7V60.7z M451.3,25.7h113.8v-1.4H451.3V25.7z
		 M574.8,35.3v25.4h1.4V35.3H574.8z M575.5,60H441v1.4h134.5V60z M441.7,60.7V35.3h-1.4v25.4H441.7z M565.1,25.7
		c5.3,0,9.6,4.3,9.6,9.6h1.4c0-6.1-4.9-11-11-11V25.7z M451.3,24.3c-6.1,0-11,4.9-11,11h1.4c0-5.3,4.3-9.6,9.6-9.6V24.3z"/>
</g>
<circle class="st25" cx="176.9" cy="306.4" r="44.8"/>
<g>
	<polygon class="st26" points="154.3,275.5 149.7,271.9 146.9,267.5 146.2,260.3 149.5,255.9 157.1,252.3 161.3,253.2 167.4,257.9 
		168.5,267.1 	"/>
	<g>
		<polyline class="st27" points="161.6,268.6 158.7,262 161.4,256.5 		"/>
		<polyline class="st27" points="158.7,262 151.3,261.8 149.5,255.8 157.1,252.2 		"/>
		<line class="st27" x1="155.2" y1="273.9" x2="149.8" y2="268.6"/>
		<polyline class="st27" points="168.2,264.7 166.9,257.6 161,253 157.1,252.2 161.4,256.5 166.9,259.5 		"/>
		<polyline class="st27" points="154.1,275.5 149.8,272 146.8,267.3 149.8,268.6 151.3,261.8 		"/>
		<polyline class="st27" points="149.5,255.8 146.1,260.4 146.8,267.3 		"/>
		<path class="st27" d="M146.8,267.3"/>
	</g>
	<polygon class="st26" points="199.7,275.1 204.2,271.5 207.1,267.1 207.7,259.9 204.4,255.5 196.8,251.9 192.7,252.8 186.6,257.5 
		185.5,266.6 	"/>
	<path class="st27" d="M166.3,299.4c-1.8,1.5-4,3.4-6.6,6.8c-6.2,8.1-7.7,16-8.3,19.9c-1,6.1-0.6,10.6,0.6,10.9
		c1,0.2,2.3-2.2,4.5-1.9c0.8,0.1,1,0.5,1.5,0.3c1.2-0.3,1.3-2.6,2.1-5.3c0.6-2.1,1.7-2.8,2.1-5.1c0.1-0.5,0.1-0.9,0.1-1.2"/>
	<path class="st27" d="M190.2,324c0.2,1,0.5,2.2,1.1,3.5c1,2.2,1.6,2.4,2.1,4.1c0.6,2,0.1,3.2,0.8,3.6c0.8,0.4,1.8-0.7,2.8-0.2
		c0.6,0.3,0.5,0.8,1.2,1.4c0.7,0.6,1.7,0.9,2.3,0.7c1.6-0.4,1.9-5.1,1.6-8.7c-0.3-3.4-1.5-6.5-3.9-12.6c-2.6-6.7-4-9-5.7-11
		c-1.3-1.6-4.8-4.7-5.7-5.4"/>
	<path class="st26" d="M189.9,268.4c0.5,0.2,10.3,4.1,11.4,12.9c0.6,4.6-1.6,8.2-2.4,9.6c-6,9.7-19.6,9.9-21.7,9.9
		c-2,0-16.7,0.1-22.8-9.8c-0.7-1.2-3.2-5.2-2.3-10.3c0.8-4.8,4.1-7.7,5.6-8.9c3.7-3.2,7.7-4.1,9.5-4.3"/>
	<path class="st28" d="M169.2,280c-6.3,1-10.7,1.8-11.6,4.5c-0.8,2.5,1.7,5.3,2.3,6.1c0.6,0.6,2.3,2.5,7.5,3.9
		c2.5,0.7,7.6,2.1,14.3,1c2.8-0.5,7.1-1.2,10.8-4.5c1.1-1,3.7-3.2,3.3-5.7c0-0.2-0.2-0.8-0.8-1.7c-1.3-1.8-3.4-2.4-8.4-3.2
		c-4.8-0.8-7.3-1.2-9.9-1.2C175.9,279.4,173.1,279.4,169.2,280z"/>
	<path class="st27" d="M161.5,271.7c1,0.2,2.2,0.6,3.4,1c2.4,0.9,4.3,2.1,5.6,3.1"/>
	<path class="st27" d="M161.3,277.7c0.9-1.3,2.2-2.8,3.7-4.3c1.8-1.7,3.5-3,5-4"/>
	<path class="st27" d="M184.4,270c1.3,0.9,2,1.6,3.4,2.9c1.8,1.8,3.3,3.6,4.4,5.1"/>
	<path class="st27" d="M191.5,271.7c-1.1,0.3-2.4,0.7-3.7,1.3c-2.1,0.9-3.6,2.1-4.8,3"/>
	<path class="st26" d="M163.3,327c0.2,3.6,0.2,6.6,0.2,9c-0.1,6.8-0.5,8.9-1.2,10.8c-1,2.5-1.7,3.6-1.7,3.6c-1.2,2-2,2.5-2.2,4
		c0,0.3-0.3,2.1,0.7,3.1c0.8,0.8,1.7,0.6,5.3,0.6c4.3,0,4.8,0.3,5.5-0.4c1.3-1.2,1-3.4,0.8-5.5c-0.3-2.5-0.9-3.2-1.4-5.3
		c-0.7-2.7-0.2-4.1,0-8.4c0.1-2.2,0.2-5.4-0.1-9.2"/>
	<path class="st26" d="M189.6,327c-0.2,3.6-0.2,6.6-0.2,9c0.1,6.8,0.5,8.9,1.2,10.8c1,2.5,1.7,3.6,1.7,3.6c1.2,2,2,2.5,2.2,4
		c0,0.3,0.3,2.1-0.7,3.1c-0.8,0.8-1.7,0.6-5.3,0.6c-4.3,0-4.8,0.3-5.5-0.4c-1.3-1.2-1-3.4-0.8-5.5c0.3-2.5,0.9-3.2,1.4-5.3
		c0.7-2.7,0.2-4.1,0-8.4c-0.1-2.2-0.2-5.4,0.1-9.2"/>
	<path class="st29" d="M168.4,264.6c-0.8,0.8-1.8,2.3-1.3,2.9c0.4,0.6,1.9-0.5,3.8,0.2c0.3,0.1,0.9,0.3,1.9,0.5
		c0.4,0.1,0.6,0.1,0.8,0.1c1.1,0,1.3-0.5,2.5-0.7c0.2,0,0.9-0.2,1.8,0c0.6,0.1,1.1,0.3,1.6,0.5c0.8,0.4,0.8,0.5,1.4,0.8
		c0.8,0.3,1.5,0.3,2.1,0.3c1.3,0,1.8-0.4,2.8-0.7c2.4-0.6,4.1,0.4,4.2,0c0.2-0.5-4.4-1.6-5.2-4.5c-0.1-0.5-0.2-1.4-0.9-2.5
		c0-0.1-0.6-0.9-1.3-1.4c-2.6-1.9-7.7,0.6-8.3,0.9c-1.1,0.6-1.3,0.9-3.3,2C169.7,263.7,169.1,263.9,168.4,264.6z"/>
	<path class="st26" d="M178.7,262.3c-0.1-0.3,0.5-1,1.1-1.2c0.2-0.1,0.4-0.1,0.6,0c0.3,0.2,0.4,0.6,0.3,1c-0.2,0.4-0.7,0.5-1,0.5
		C179.5,262.6,178.9,262.6,178.7,262.3z"/>
	<path class="st26" d="M174.8,265.3c0-0.3,1.4-0.8,2.5-0.4c0.1,0,0.6,0.2,0.6,0.4c0,0.2-0.8,0.4-1.4,0.4
		C175.7,265.7,174.8,265.5,174.8,265.3z"/>
	<path class="st26" d="M181.6,266c0-0.3,0.5-0.6,1-0.6c0.1,0,0.6,0,0.8,0.4c0.1,0.2,0.1,0.5,0,0.7c-0.3,0.4-1,0.3-1.4,0
		C181.9,266.4,181.6,266.2,181.6,266z"/>
	<path class="st26" d="M173.7,261.5c0.3-0.1,0.6,0.1,1,0.3c0.3,0.2,0.4,0.3,0.4,0.4c0,0.2-0.5,0.3-0.7,0.4c-0.5,0.1-0.8,0.2-1,0
		c-0.2-0.2-0.2-0.6-0.1-0.8C173.5,261.6,173.7,261.5,173.7,261.5z"/>
	<path class="st26" d="M169.8,264.1c0.3-0.1,0.6,0.3,0.7,0.4c0.1,0.1,0.5,0.6,0.3,0.9c-0.1,0.2-0.4,0.4-0.6,0.4
		c-0.4,0-0.6-0.5-0.7-0.6c0,0-0.2-0.6,0.1-0.9C169.6,264.2,169.7,264.1,169.8,264.1z"/>
	<polygon class="st26" points="157.9,286.3 160.8,285 162.8,286.9 165.3,283.3 170.1,287.7 176.6,281.6 183.3,287.7 187.9,283.3 
		190.1,285.6 192.4,284.6 195.6,286.1 194.4,288.5 192.3,287.7 190.7,289.6 187.8,286.2 183.2,292 176.6,285.5 170.3,292 
		165.5,286.3 162.3,289.9 160.4,288.3 158.9,288.9 	"/>
	<g>
		<polyline class="st27" points="191.4,269.1 195,261.7 192.4,256.2 		"/>
		<polyline class="st27" points="195,261.7 202.4,261.5 204.2,255.5 196.6,251.9 		"/>
		<line class="st27" x1="198.5" y1="273.6" x2="203.9" y2="268.3"/>
		<polyline class="st27" points="185.6,265.5 186.5,257.6 192.7,252.7 196.6,251.9 192.4,256.2 186.8,259.2 		"/>
		<polyline class="st27" points="199.6,275.3 203.9,271.8 207,267.1 203.9,268.3 202.4,261.5 		"/>
		<polyline class="st27" points="204.2,255.5 207.6,260.1 207,267.1 		"/>
		<path class="st27" d="M207,267.1"/>
	</g>
	<path class="st27" d="M163.8,308.8c-0.2,2.5-0.4,4.4-0.6,5.8c-0.1,1.1-0.3,1.9-0.4,3.2c-0.2,1.7-0.2,2.8-0.2,3.9
		c-0.1,3.4,0.1,4.1,0.5,4.7c0.4,0.6,0.9,1,1.6,1.4c2.6,1.5,6,1.8,11.5,1.8c4.6,0,6-0.1,7.3-0.4c2.8-0.5,4.7-0.9,5.9-2.4
		c1-1.3,1.1-2.9,0.8-6.6c-0.2-2.8-0.7-6.6-1.6-11.1"/>
	<path class="st30" d="M168.2,264.7c-0.7-0.4-0.3-1.7-0.3-3.8c0-1.2-0.1-1.8-1.3-6.7c-1.1-4.6-1.9-7.7-2.4-11.7
		c-0.3-2.3-0.3-4.1,0.7-4.8c0.8-0.5,1-0.3,1.3-0.2c2.2,0.9,3.9,2.8,6.1,6.7c2,3.4,3.6,6.3,4.5,8.5c0.1,0.1,0.4,0.9,0.9,1.8
		c0.5,1,0.8,1.4,1,1.7c1,1.1,2.2,1.2,3.2,2.3c0.7,0.7,1,1.2,0.7,1.6c-0.3,0.4-1.4-0.5-3-0.7c-2.1-0.3-3.9,0.8-6.9,2.6
		C169.8,263.9,168.9,265.1,168.2,264.7z"/>
	<path class="st27" d="M168.5,256.9c1.2-0.8,2.8-1.7,4.8-2.4c0.9-0.3,1.8-0.5,2.5-0.7"/>
</g>
<path class="st31" d="M339.1,351.2c24.9,0,45-20.1,45-45c0-24.9-20.1-45-45-45c-24.9,0-45,20.1-45,45
	C294.1,331.1,314.3,351.2,339.1,351.2z"/>
<g>
	<path class="st32" d="M322.4,333.1c-0.8,9.2-0.8,13.3-0.4,15.2c0.1,0.5,0.3,1.4,0,2.5c-0.5,1.8-1.8,2.1-2.2,3.8
		c0,0.2-0.3,1.7,0.5,2.7c0.8,1,2.2,0.7,6.4,0.7c4.2,0,4.9,0.3,5.7-0.4c0.9-0.9,0.6-2.1,0.6-5.8c-0.1-4.5,0.4-3.8,0.4-9.4
		c0-1.8-0.1-4.1-0.3-6.9"/>
	<path class="st32" d="M353.3,333.1c0.8,9.2,0.8,13.3,0.4,15.2c-0.1,0.5-0.3,1.4,0,2.5c0.5,1.8,1.8,2.1,2.2,3.8
		c0,0.2,0.3,1.7-0.5,2.7c-0.8,1-2.2,0.7-6.4,0.7c-4.2,0-4.9,0.3-5.7-0.4c-0.9-0.9-0.6-2.1-0.6-5.8c0.1-4.5-0.4-3.8-0.4-9.4
		c0-1.8,0.1-4.1,0.3-6.9"/>
	<polygon class="st33" points="361.9,275 366.5,271.3 369.3,267 369.9,259.8 366.7,255.3 359,251.8 354.9,252.7 348.8,257.3 
		347.7,266.5 	"/>
	<g>
		<polyline class="st32" points="353.6,269 357.2,261.6 354.6,256.1 		"/>
		<polyline class="st32" points="357.2,261.6 364.7,261.4 366.5,255.4 358.8,251.8 		"/>
		<line class="st32" x1="360.7" y1="273.5" x2="366.1" y2="268.2"/>
		<polyline class="st32" points="349.1,259.1 354.6,256.1 358.8,251.8 355,252.6 348.8,257.5 347.8,265.4 		"/>
		<polyline class="st32" points="361.8,275.1 366.1,271.6 369.2,266.9 366.1,268.2 364.7,261.4 		"/>
		<polyline class="st32" points="366.5,255.4 369.8,260 369.2,266.9 		"/>
		<path class="st32" d="M369.2,266.9"/>
	</g>
	<polygon class="st33" points="316.5,275.4 311.9,271.7 309.1,267.4 308.4,260.2 311.7,255.7 319.4,252.2 323.5,253.1 329.6,257.8 
		330.7,266.9 	"/>
	<g>
		<polyline class="st32" points="323.8,268.5 321,261.9 323.6,256.4 		"/>
		<polyline class="st32" points="321,261.9 313.5,261.7 311.7,255.7 319.4,252 		"/>
		<line class="st32" x1="317.5" y1="273.8" x2="312" y2="268.5"/>
		<polyline class="st32" points="329.1,259.3 323.6,256.4 319.4,252 323.2,252.9 329.1,257.5 330.4,264.6 		"/>
		<polyline class="st32" points="316.3,275.4 312,271.9 309,267.2 312,268.5 313.5,261.7 		"/>
		<polyline class="st32" points="311.7,255.7 308.4,260.3 309,267.2 		"/>
		<path class="st32" d="M309,267.2"/>
	</g>
	<path class="st33" d="M320.3,303.5c-0.6-1.8-2-2.1-4.2-3.9c-3.9-3.1-6.4-7.5-7.2-10.6c-1.7-6.5,2.8-12.8,7.2-18.8
		c0.8-1.1,4.2-5.7,10-10c4.9-3.6,7.8-5.8,11.8-5.6c2.9,0.1,5.6,2,10.9,5.7c4.3,3,6.4,4.5,9,7.2c4.3,4.4,9.2,9.4,9.5,16.7
		c0,1.1,0.2,7.2-3.7,12.1c-3.4,4.3-7,4-7.7,7.2c-0.5,2.4,1.4,2.8,4.3,10.7c1,2.7,1,3.3,2.3,6.6c0.8,2.1,1.3,3.2,2.2,5.6
		c1.7,4.8,1.7,6,1.1,6.9c-0.6,0.9-1.3,0.9-1.9,2.1c-0.7,1.4-0.1,2.1-0.7,2.8c-0.9,1-3,0.6-5.8-0.1c-2.8-0.6-3.2-1.2-3.3-1.5
		c-0.5-1.1,0.4-2.3-0.1-2.8c-0.5-0.4-1.6,0.2-3,0.7c-1.1,0.4-2.5,0.6-5.3,1c-2.1,0.3-3.9,0.3-7.6,0.3c-7.1,0-9.1-0.4-10.1-0.6
		c-2-0.4-2.9-0.6-3.9-1.1c-1.1-0.5-2-1.1-2.3-0.9c-0.2,0.2,0.1,0.5,0.3,1.4c0.1,0.6,0.1,1.3,0,1.7c-0.4,1.4-2.8,1.7-6.6,2.2
		c-1.7,0.2-2.4,0.2-2.8-0.2c-0.7-0.7,0-1.8-0.7-3.1c-0.5-1-1.3-1.1-1.9-1.7c-1.5-1.6,0.3-5.4,1.8-8.8c3.5-8.1,2.1-6.7,4.4-11.4
		C319.3,307.5,321.1,305.8,320.3,303.5z"/>
	<path class="st33" d="M318.7,295.8c-3.7-3.3-4.8-7.6-5.2-9c-0.5-2-1.3-5.4,0.1-9.1c1.2-3,3.4-4.7,7.1-7.7c0.6-0.5,1.9-1.5,5.5-3.7
		c6.6-4.1,9.8-6.1,12-6.3c3.3-0.2,6,1.8,11.2,5.8c8.7,6.7,13,10,13.9,15.2c1.1,6.5-2.1,14.2-7.2,16.9c-2.7,1.4-3.6,0.2-10.3,2.5
		c-3.6,1.2-4.9,2.1-7.7,2.1c-2,0-3.2-0.4-7-1.8C320.2,296.8,319.9,296.8,318.7,295.8z"/>
	<path class="st33" d="M351.1,268.3c3,1.6,10.4,5.6,11.4,12.9c0.6,4.8-1.8,8.7-2.4,9.6c-5.2,7.6-16.3,7.7-22.3,7.7
		c-6.3,0-17.1,0-22.2-7.5c-0.4-0.6-3.2-4.9-2.3-10.3c1.4-8.6,11-12.6,13.6-13.7C338.8,262,349.9,267.7,351.1,268.3z"/>
	<path class="st34" d="M330.4,279.9c-6.3,1-10.7,1.8-11.6,4.5c-0.8,2.5,1.7,5.3,2.3,6.1c0.6,0.6,2.3,2.5,7.5,3.9
		c2.5,0.7,7.6,2.1,14.3,1c2.8-0.5,7.1-1.2,10.8-4.5c1.1-1,3.7-3.2,3.3-5.7c0-0.2-0.2-0.8-0.8-1.7c-1.3-1.8-3.4-2.4-8.4-3.2
		c-4.8-0.8-7.3-1.2-9.9-1.2C337.1,279.2,334.3,279.3,330.4,279.9z"/>
	<path class="st32" d="M322.7,271.5c1,0.2,2.2,0.6,3.4,1c2.4,0.9,4.3,2.1,5.6,3.1"/>
	<path class="st32" d="M322.5,277.6c0.9-1.3,2.2-2.8,3.7-4.3c1.8-1.7,3.5-3,5-4"/>
	<path class="st32" d="M345.6,269.9c1.3,0.9,2,1.6,3.4,2.9c1.8,1.8,3.3,3.6,4.4,5.1"/>
	<path class="st32" d="M352.7,271.5c-1.1,0.3-2.4,0.7-3.7,1.3c-2.1,0.9-3.6,2.1-4.8,3"/>
	<line class="st35" x1="315.1" y1="300.9" x2="315.1" y2="304.3"/>
	<path class="st36" d="M320.7,298.5h2.9c2,0,3.7,3.8,3.7,8.4c0,4.7-1.6,8.4-3.7,8.4h-2.9"/>
	<path class="st4" d="M318.8,299.3c-0.2-0.1-1.1-0.2-1.9,0.2c-0.2,0.1-0.7,0.4-1.1,1c-0.1,0.2-0.3,0.6-0.2,2.3
		c0.1,1,0.1,1.6,0.2,1.9c0.5,1,1.8,1.4,2.3,1.5"/>
	<path class="st36" d="M317.3,303.3c0.6-2.8,1.9-4.8,3.3-4.8c2,0,3.7,3.8,3.7,8.4c0,4.7-1.6,8.4-3.7,8.4c-2,0-3.7-3.8-3.7-8.4"/>
	<ellipse class="st36" cx="319.9" cy="306.9" rx="1.1" ry="3.6"/>
	<path class="st35" d="M315.1,304.3c0.2,0.4,0.6,0.9,1.2,1.5c0.8,0.7,1.6,0.9,2,1.1"/>
	<path class="st37" d="M318.8,303.8c-2.5-0.6-3.9-2-3.7-2.9c0.1-0.7,1.3-1.3,2.7-1.4"/>
	<line class="st35" x1="362.2" y1="300.9" x2="362.2" y2="304.3"/>
	<path class="st36" d="M356.7,298.5h-2.9c-2,0-3.7,3.8-3.7,8.4c0,4.7,1.6,8.4,3.7,8.4h2.9"/>
	<path class="st4" d="M358.5,299.3c0.2-0.1,1.1-0.2,1.9,0.2c0.2,0.1,0.7,0.4,1.1,1c0.1,0.2,0.3,0.6,0.2,2.3c-0.1,1-0.1,1.6-0.2,1.9
		c-0.5,1-1.8,1.4-2.3,1.5"/>
	<path class="st36" d="M360,303.3c-0.6-2.8-1.9-4.8-3.3-4.8c-2,0-3.7,3.8-3.7,8.4c0,4.7,1.6,8.4,3.7,8.4s3.7-3.8,3.7-8.4"/>
	<ellipse class="st36" cx="357.5" cy="306.9" rx="1.1" ry="3.6"/>
	<path class="st35" d="M362.2,304.3c-0.2,0.4-0.6,0.9-1.2,1.5c-0.8,0.7-1.6,0.9-2,1.1"/>
	<path class="st37" d="M358.5,303.8c2.5-0.6,3.9-2,3.7-2.9c-0.1-0.7-1.3-1.3-2.7-1.4"/>
	<circle class="st34" cx="338.8" cy="311.3" r="4.1"/>
	<g>
		
			<ellipse transform="matrix(0.335 -0.9422 0.9422 0.335 -61.6894 508.3848)" class="st37" cx="329.3" cy="297.9" rx="1.3" ry="0.8"/>
		
			<ellipse transform="matrix(0.9885 -0.1513 0.1513 0.9885 -41.6481 53.2682)" class="st38" cx="329.3" cy="300.4" rx="0.8" ry="1.1"/>
		
			<ellipse transform="matrix(0.9411 -0.338 0.338 0.9411 -83.4134 129.6082)" class="st38" cx="330.4" cy="304.3" rx="0.8" ry="1.1"/>
		
			<ellipse transform="matrix(0.6651 -0.7467 0.7467 0.6651 -118.6509 351.9524)" class="st39" cx="333.1" cy="308.3" rx="0.8" ry="1.6"/>
		
			<ellipse transform="matrix(0.9734 -0.2292 0.2292 0.9734 -60.4683 83.6054)" class="st37" cx="329.7" cy="302.1" rx="0.4" ry="1.3"/>
		<ellipse transform="matrix(0.866 -0.5 0.5 0.866 -108.7728 206.7621)" class="st37" cx="331.4" cy="306.4" rx="0.4" ry="1.3"/>
	</g>
	<g>
		
			<ellipse transform="matrix(0.9422 -0.335 0.335 0.9422 -79.6522 133.9642)" class="st37" cx="348.5" cy="297.9" rx="0.8" ry="1.3"/>
		
			<ellipse transform="matrix(0.1513 -0.9885 0.9885 0.1513 -1.1126 599.474)" class="st38" cx="348.5" cy="300.4" rx="1.1" ry="0.8"/>
		
			<ellipse transform="matrix(0.338 -0.9411 0.9411 0.338 -56.4026 528.4035)" class="st38" cx="347.4" cy="304.3" rx="1.1" ry="0.8"/>
		
			<ellipse transform="matrix(0.7467 -0.6651 0.6651 0.7467 -117.7135 307.3801)" class="st39" cx="344.8" cy="308.3" rx="1.6" ry="0.8"/>
		
			<ellipse transform="matrix(0.2292 -0.9734 0.9734 0.2292 -25.7673 571.7541)" class="st37" cx="348.1" cy="302.1" rx="1.3" ry="0.4"/>
		<ellipse transform="matrix(0.5 -0.866 0.866 0.5 -92.1078 453.1724)" class="st37" cx="346.4" cy="306.4" rx="1.3" ry="0.4"/>
	</g>
	<path class="st33" d="M321.8,316.3c-1.8,4.3-2.1,8.1-1.5,10c0.5,1.7,1.1,2.6,1.1,2.6c0.6,1,1.2,1.3,1.3,2.1
		c0.2,0.9-0.3,1.7-0.8,2.3"/>
	<path class="st33" d="M354.1,316.3c1.8,4.3,2.1,8.1,1.5,10c-0.5,1.7-1.1,2.6-1.1,2.6c-0.8,1-1.1,1.3-1.3,2.1
		c-0.1,0.6-0.1,1.5,0.8,2.8"/>
	<path class="st32" d="M322.2,350.6c0.4-0.3,2.9-2.2,6.2-1.4c2.2,0.5,3.5,1.9,3.9,2.4"/>
	<path class="st32" d="M353.4,350.6c-0.4-0.3-2.9-2.2-6.2-1.4c-2.2,0.5-3.5,1.9-3.9,2.4"/>
	<polygon class="st33" points="318.8,286.9 321.8,285.9 323.1,287.2 326.2,284.3 331.2,288.9 338.1,282.8 344.4,288.9 349.1,284.2 
		351.7,286.6 353.3,285.8 356.8,286.6 356.5,287.5 353.3,286.8 351.9,287.9 349.2,285.1 344.2,290.2 338.2,283.9 331.3,290.2 
		326.2,285.5 323.4,288.5 321.3,287 319.2,287.8 	"/>
	<line class="st33" x1="330" y1="265.9" x2="330" y2="264.3"/>
	<line class="st33" x1="347.9" y1="266.3" x2="348.1" y2="264.9"/>
	<g>
		<path class="st40" d="M326.2,322c-0.4,0-0.7,0-0.9,0c0-0.2,0.1-0.5,0.1-0.9v-3.3c0-0.4,0-0.7-0.1-1h1.4c0,0.3,0,0.5,0,1v3.1h1.5
			c0.5,0,0.7,0,1,0v1.2c-0.2,0-0.5,0-1,0H326.2z"/>
		<path class="st40" d="M334.7,316.8c0,0.3-0.1,0.5-0.1,0.9v2.2c0,1.4-0.9,2.2-2.4,2.2c-0.8,0-1.4-0.2-1.8-0.6
			c-0.4-0.4-0.6-0.9-0.6-1.6v-2.1c0-0.4,0-0.7,0-0.9h1.4c0,0.2,0,0.5,0,0.9v2.2c0,0.8,0.4,1.2,1.1,1.2c0.8,0,1.1-0.4,1.1-1.2v-2.2
			c0-0.5,0-0.7-0.1-0.9H334.7z"/>
		<path class="st40" d="M335.9,322c0-0.3,0.1-0.6,0.1-0.9v-3.4c0-0.3,0-0.6-0.1-0.9c0.3,0,0.5,0,0.9,0h1.4c1.2,0,1.9,0.6,1.9,1.7
			c0,1.1-0.7,1.8-1.9,1.8h-1v0.8c0,0.4,0,0.7,0,0.9H335.9z M338.1,319.2c0.4,0,0.7-0.2,0.7-0.7s-0.2-0.7-0.7-0.7h-0.9v1.3H338.1z"/>
		<path class="st40" d="M341,322c0-0.3,0.1-0.6,0.1-0.9v-3.4c0-0.3,0-0.6-0.1-0.9c0.3,0,0.5,0,0.9,0h1.4c1.2,0,1.9,0.6,1.9,1.7
			c0,1.1-0.7,1.8-1.9,1.8h-1v0.8c0,0.4,0,0.7,0,0.9H341z M343.2,319.2c0.4,0,0.7-0.2,0.7-0.7s-0.2-0.7-0.7-0.7h-0.9v1.3H343.2z"/>
		<path class="st40" d="M349,321.1c0,0.3,0,0.6,0,0.9h-1.4c0-0.3,0.1-0.6,0.1-0.9V320l-1.4-2.4c-0.1-0.2-0.3-0.4-0.5-0.8h1.6
			c0.1,0.2,0.1,0.4,0.3,0.7l0.7,1.3l0.7-1.3c0.2-0.3,0.2-0.5,0.3-0.7h1.6c-0.2,0.3-0.4,0.6-0.5,0.8L349,320V321.1z"/>
	</g>
	<g>
		<path class="st40" d="M333.8,326.2c0-0.1,0-0.2,0-0.3v-1.1c0-0.1,0-0.2,0-0.3c0.1,0,0.2,0,0.3,0h0.5c0.4,0,0.6,0.2,0.6,0.6
			c0,0.4-0.2,0.6-0.6,0.6h-0.3v0.3c0,0.1,0,0.2,0,0.3H333.8z M334.6,325.3c0.1,0,0.2-0.1,0.2-0.2c0-0.1-0.1-0.2-0.2-0.2h-0.3v0.4
			H334.6z"/>
		<path class="st40" d="M336.8,326.2c0-0.1,0-0.2,0-0.2l-0.1-0.2h-0.6L336,326c0,0.1,0,0.1-0.1,0.2h-0.5c0-0.1,0-0.1,0.1-0.3
			l0.4-1.2c0-0.1,0.1-0.2,0.1-0.2h0.5c0,0.1,0,0.1,0.1,0.2l0.4,1.2c0,0.1,0.1,0.2,0.1,0.3H336.8z M336.4,324.9l-0.2,0.6h0.4
			L336.4,324.9z"/>
		<path class="st40" d="M338.8,326.2c0-0.1,0-0.2-0.1-0.3c-0.1-0.2-0.1-0.2-0.1-0.3c0,0-0.1-0.1-0.2-0.1h-0.2v0.3c0,0.1,0,0.2,0,0.3
			h-0.4c0-0.1,0-0.2,0-0.3v-1.1c0-0.1,0-0.2,0-0.3c0.1,0,0.2,0,0.3,0h0.5c0.3,0,0.5,0.2,0.5,0.5c0,0.1,0,0.3-0.1,0.3
			c-0.1,0-0.1,0.1-0.2,0.1c0.1,0,0.2,0.1,0.2,0.2c0,0.1,0.1,0.1,0.2,0.4c0,0.1,0,0.1,0.1,0.2H338.8z M338.5,325.2
			c0.1,0,0.2-0.1,0.2-0.2c0-0.1-0.1-0.2-0.2-0.2h-0.3v0.4H338.5z"/>
		<path class="st40" d="M340.2,324.5c0,0.1,0,0.2,0,0.3v1.1c0,0.1,0,0.2,0,0.3h-0.5c0-0.1,0-0.2,0-0.3v-1.1c0-0.2,0-0.2,0-0.3H340.2
			z"/>
		<path class="st40" d="M341.2,325.7c0,0.1,0,0.1,0.1,0.2c0,0.1,0.1,0.1,0.2,0.1c0.2,0,0.3-0.1,0.3-0.2c0-0.1,0-0.1-0.1-0.1
			c0,0-0.1,0-0.3-0.1c-0.2,0-0.3-0.1-0.3-0.1c-0.1-0.1-0.2-0.2-0.2-0.4c0-0.3,0.3-0.5,0.7-0.5c0.3,0,0.5,0.1,0.6,0.2
			c0.1,0.1,0.1,0.1,0.1,0.2l-0.4,0c0-0.1-0.1-0.2-0.3-0.2c-0.1,0-0.2,0.1-0.2,0.2c0,0.1,0,0.1,0.1,0.1c0,0,0,0,0.3,0.1
			c0.2,0,0.3,0.1,0.3,0.1c0.1,0.1,0.2,0.2,0.2,0.4c0,0.2,0,0.3-0.1,0.4c-0.1,0.1-0.3,0.2-0.5,0.2c-0.2,0-0.3,0-0.5-0.1
			c-0.1-0.1-0.2-0.1-0.2-0.3c0,0,0-0.1,0-0.2L341.2,325.7z"/>
	</g>
	<g>
		<g>
			<path class="st40" d="M337.4,310c0-0.3,0-0.4-0.5-0.4v-0.2h1.8c0.7,0,1.1,0,1.4,0.2c0.2,0.1,0.4,0.3,0.4,0.6
				c0,0.5-0.6,0.8-1.4,0.8v0c1.3,0,1.6,0.5,1.6,0.8c0,0.3-0.1,0.5-0.4,0.7c-0.3,0.2-0.7,0.3-1.5,0.3h-2v-0.2c0.5,0,0.5-0.1,0.5-0.4
				V310z M338.7,309.6c-0.2,0-0.2,0-0.2,0.2v1h0.3c0.2,0,0.8,0,0.8-0.6c0-0.2-0.1-0.6-0.6-0.6H338.7z M338.4,311.1v1.1
				c0,0.2,0,0.2,0.2,0.2h0.3c0.7,0,0.7-0.4,0.7-0.7c0-0.4-0.3-0.7-0.9-0.7H338.4z"/>
		</g>
		<line class="st41" x1="338.2" y1="313.5" x2="338.2" y2="308.9"/>
		<line class="st41" x1="339.1" y1="313.5" x2="339.1" y2="308.9"/>
	</g>
</g>
<g>
	<path class="st42" d="M501.3,351.2c24.9,0,45-20.1,45-45c0-24.9-20.1-45-45-45c-24.9,0-45,20.1-45,45
		C456.3,331.1,476.5,351.2,501.3,351.2z"/>
	<line class="st32" x1="492.6" y1="300.9" x2="494.6" y2="308"/>
	<path class="st32" d="M492.6,300.9c-5.5,0.4-7.7,2.2-8.8,3.8c-1.1,1.8-0.8,3.3-2.6,5.5c-1.3,1.6-2.5,1.4-4.3,3.4
		c-0.7,0.8-1.2,1.6-2.2,3.2c-1.9,3.1-1.9,4-1.9,4.5c0.1,1,0.5,2.3,1.4,2.5c0.7,0.2,1.2-0.5,1.9-0.3c0.9,0.3,0.7,1.5,1.5,2.2
		c1.2,1.1,3.8,0.3,5.4-0.7c2-1.2,2.8-2.9,3.8-5c1.9-4,2.1-7.2,2.3-7.2c0.1,0,0,0.4-0.8,5.9c-0.2,1.2-0.3,2.3-1.2,3
		c-0.7,0.5-1.2,0.4-1.5,0.9c-0.4,0.7,0,1.9,0.6,2.6c1,1.3,2.8,1.4,3.6,1.5c4.6,0.3,8.9,0.1,11.1,0c5.5-0.2,8.2-0.3,9.6-0.2
		c2.2,0.1,4.1,0.3,5.1-0.9c0.7-0.9,0.8-2.5,0.2-3.4c-0.5-0.7-1-0.6-1.5-1.3c-0.6-0.9-0.5-1.7-0.5-3c-0.1-2.8-1-4.6-0.8-4.7
		c0.2-0.1,1.6,3.4,2.6,6.1c0.4,1.1,0.7,1.9,1.4,2.6c1.3,1.2,3.2,1.8,3.7,1.3c0.2-0.2,0-0.5-0.1-2.1c-0.1-1.2,0-1.5,0.2-1.7
		c0.3-0.4,0.9-0.4,1.7-0.4c3,0,3.5,0.4,3.9,0c0.8-0.6,0.5-2.5-0.1-3.7c-0.6-1.2-1.3-1.4-2.3-2.4c-2.1-2-1.3-3.3-3-5.6
		c-1.2-1.7-2.9-2.6-6.4-4.4c-2.1-1.1-3.9-1.8-5.1-2.3"/>
	<line class="st32" x1="508.3" y1="300.9" x2="506.9" y2="308.2"/>
	<line class="st32" x1="504.9" y1="301.3" x2="504.9" y2="307.1"/>
	<line class="st32" x1="496.9" y1="301.3" x2="496.9" y2="307.6"/>
	<path class="st32" d="M484.1,329.2c-4.5,6.5-5,8.8-4.2,9.6c0.5,0.6,1.8,0.5,2.2,1.5c0.3,0.8-0.3,1.2,0,2c0.5,1.2,2.2,0.7,3.1,1.9
		c0.4,0.5,0.2,0.8,0.2,4.2c0,2.2,0.1,2.1,0,2.5c-0.5,1.8-1.8,2.1-2.2,3.8c0,0.2-0.3,1.7,0.5,2.7c0.8,1,2.2,0.7,6.4,0.7
		c2.7,0,4,0.4,5.7-0.4c0.7-0.3,1.4-0.7,1.7-1.4c0.4-1.2-0.8-2-1.1-4.4c0-0.1,0-0.9,0-2.5c0-2.7,0-4.1,0.3-4.6
		c0.7-1.7,1.9-1.4,2.2-2.7c0.2-1.1-0.4-1.4-0.5-3.7c0-0.8,0-1.5,0-1.5c0.1-1.5,0.2-1.7,0-2c-0.5-1-2.9-1.3-4-0.3
		c-0.2,0.2-0.5,0.5-0.9,2.8c-0.4,2.3-0.2,2.7-0.4,3.2c-0.5,1-2.7,1.7-10,0.1"/>
	<polygon class="st43" points="521.4,278.4 525.2,275.3 527.7,271.5 528.2,265.4 525.4,261.6 518.9,258.5 515.4,259.3 510.1,263.3 
		509.2,271.1 	"/>
	<g>
		<polyline class="st44" points="514.2,273.3 517.4,267 515.1,262.3 		"/>
		<polyline class="st44" points="517.4,267 523.7,266.8 525.2,261.7 518.7,258.5 		"/>
		<line class="st44" x1="520.3" y1="277.1" x2="525" y2="272.6"/>
		<polyline class="st44" points="510.4,264.8 515.1,262.3 518.7,258.5 515.4,259.2 510.1,263.4 509.3,270.2 		"/>
		<polyline class="st44" points="521.3,278.5 525,275.5 527.6,271.5 525,272.6 523.7,266.8 		"/>
		<polyline class="st44" points="525.2,261.7 528.1,265.6 527.6,271.5 		"/>
		<path class="st44" d="M527.6,271.5"/>
	</g>
	<polygon class="st43" points="480.6,278.7 476.7,275.6 474.3,271.9 473.7,265.8 476.5,261.9 483,258.9 486.6,259.7 491.8,263.7 
		492.7,271.5 	"/>
	<g>
		<polyline class="st44" points="486.8,272.8 484.4,267.2 486.6,262.5 		"/>
		<polyline class="st44" points="484.4,267.2 478,267 476.5,261.9 483,258.8 		"/>
		<line class="st44" x1="481.4" y1="277.3" x2="476.8" y2="272.8"/>
		<polyline class="st44" points="491.4,265 486.6,262.5 483,258.8 486.3,259.5 491.4,263.4 492.4,269.5 		"/>
		<polyline class="st44" points="480.4,278.7 476.8,275.7 474.2,271.7 476.8,272.8 478,267 		"/>
		<polyline class="st44" points="476.5,261.9 473.6,265.8 474.2,271.7 		"/>
		<path class="st44" d="M474.2,271.7"/>
	</g>
	<path class="st45" d="M512.1,270.8c2.6,1.7,8.9,5.7,9.7,13.1c0.5,4.9-1.6,8.8-2.1,9.7c-4.4,7.8-13.4,8.7-18.5,8.7
		c-5.4,0-15.2-0.9-19.5-8.5c-0.3-0.6-2.7-5-2-10.4c1.2-8.7,9.4-12.8,11.6-13.9C501.6,264.3,511.1,270.1,512.1,270.8z"/>
	<g>
		<path class="st46" d="M481.8,274.1c0.5,1.2,2.3,0.4,18.1,0.9c5.1,0.1,10.1-0.3,15.2,0.1c3.3,0.2,4.3,0.4,4.7-0.2
			c1.3-2.3-7.3-14.2-18.6-14.5C489.9,259.9,480.4,270.9,481.8,274.1z"/>
		<polygon class="st46" points="485,273.9 487.3,273 513.6,273 515.6,273.9 513.7,275.5 487.2,275.5 		"/>
	</g>
	<path class="st47" d="M494.5,285.6c-5.4,0.9-9.1,1.5-9.9,3.8c-0.7,2.1,1.4,4.5,2,5.2c0.5,0.5,1.9,2.1,6.4,3.4
		c2.2,0.6,6.5,1.8,12.2,0.9c2.4-0.4,6-1.1,9.2-3.8c1-0.8,3.1-2.7,2.8-4.8c0-0.2-0.1-0.7-0.7-1.4c-1.1-1.5-2.9-2-7.2-2.7
		c-4.1-0.7-6.2-1-8.5-1C500.2,285,497.8,285,494.5,285.6z"/>
	<path class="st44" d="M487.9,278.4c0.9,0.2,1.9,0.5,2.9,0.9c2,0.8,3.6,1.8,4.8,2.7"/>
	<path class="st44" d="M487.7,283.6c0.8-1.1,1.8-2.4,3.2-3.7c1.5-1.5,3-2.6,4.3-3.4"/>
	<path class="st44" d="M507.4,277c1.1,0.8,1.7,1.3,2.9,2.5c1.6,1.5,2.8,3,3.8,4.4"/>
	<path class="st44" d="M513.5,278.4c-0.9,0.2-2,0.6-3.2,1.1c-1.8,0.8-3.1,1.8-4.1,2.6"/>
	<path class="st32" d="M485.6,350.6c0.4-0.3,2.9-2.2,6.2-1.4c2.2,0.5,3.5,1.9,3.9,2.4"/>
	<polygon class="st48" points="484.5,291.5 487.1,290.7 488.2,291.8 490.8,289.3 495.1,293.2 501,288 506.4,293.2 510.4,289.2 
		512.6,291.3 514,290.6 517,291.3 516.7,292 514,291.5 512.8,292.4 510.5,290 506.2,294.4 501.1,289 495.3,294.4 490.8,290.4 
		488.5,292.9 486.7,291.6 484.9,292.3 	"/>
	<line class="st48" x1="492.1" y1="270.6" x2="492.1" y2="269.2"/>
	<line class="st48" x1="510.4" y1="271" x2="510.5" y2="269.8"/>
	<path class="st32" d="M488.2,316.7c0-1.6,4.3-1.6,5.5-4.7c0.7-1.8-0.2-3.2,0.8-4c0.8-0.6,1.5,0,4.2,0c1.6,0,3.4-0.2,4.5-0.4
		c1-0.1,2.1-0.3,3.3,0.3c0.1,0.1,0.5,0.3,0.9,0.6c1.7,1.5,0.8,3.3,2.1,4.7c1.1,1.3,2.3,0.6,3.5,2.1c0.2,0.2,1.1,1.4,0.7,2.5
		c-0.5,1.3-2.7,2.1-4.1,1.4c-2.2-1-3.3-5.5-3.6-6.9c-0.1-0.6-0.4-1.7-1.2-2.1c-0.4-0.2-0.7-0.1-1.9-0.1c-1.9,0.1-1.9-0.1-3.6,0
		c-1.4,0.1-2.1,0.2-2.5,0.5c-0.9,0.7-0.5,1.9-1,3.7c-0.1,0.5-1.2,3.8-3.5,4.3C490.4,319.1,488.2,317.9,488.2,316.7z"/>
	<path class="st32" d="M498.2,312.8c0.6,0.3,1.6,0.7,3.1,0.7c1.4,0,2.5-0.4,3.1-0.7"/>
	<path class="st32" d="M497.4,315.5c0.5,0.3,2,1.2,4,1.2c1.8,0,3.1-0.8,3.6-1.2"/>
	<path class="st32" d="M496.5,317.9c0.6,0.4,2.5,1.5,5,1.4c2.2-0.1,3.8-1.1,4.5-1.5"/>
	<path class="st32" d="M474.2,323.9c-0.1,0.7,0.1,2.2-0.1,2.3c-0.5,0.5-1.8-0.7-2.6-0.2c-0.5,0.3-0.7,1.4-0.3,1.9
		c0.4,0.7,1.3,0.4,1.6,1c0.2,0.5-0.2,1.3-0.8,1.7c-0.7,0.5-1.5,0.2-1.7,0.6c-0.2,0.3,0.2,0.8,0.2,1c0.4,0.5,0.8,0.5,0.9,0.9
		c0.1,0.4-0.4,0.6-0.6,1.1c-0.5,1.1,0.6,2.7,1.3,3.8c1.1,1.7,2.3,2.6,2.4,2.5c0.1-0.1-1.7-1.6-1.3-3c0,0,0.2-0.8,0.8-1
		c1.1-0.4,2.7,1.5,2.8,1.4c0.1-0.1-2.4-1.6-2.4-3.4c0-1.6,2.1-2,3.6-4.7c0.8-1.4,1.1-2.7,1.2-3.5"/>
	<path class="st32" d="M472.9,322.8c-0.6,0.6-1.2,1.4-1.9,3.2c-0.7,2-0.5,3.8-0.4,4.6"/>
	<path class="st32" d="M525.7,319.3c0.7,1,1.4,2.3,2,3.9c0.7,1.8,1,3.5,1.2,4.8"/>
	<path class="st32" d="M503.1,343.1"/>
	<path class="st32" d="M489.7,330.8c-0.7,0.9-1.7,2.2-2.4,3.9c-0.9,2.1-0.8,3.1-1.6,3.8c-0.8,0.6-2.3,0.7-5.6-1"/>
	<path class="st32" d="M486.2,325.4c-3,2.2-3.4,3-3.2,3.4c0.2,0.5,1.4,0.1,3.3,0.9c1.3,0.6,1.1,0.9,2.1,1.2c2,0.6,3.7-0.7,4.3,0
		c0.2,0.2,0,0.4,0.1,1.2c0,0.6,0.2,2.1,0.9,2.5c0.9,0.6,2.7-1,3.3-1.5c0.8-0.7,2.2-1.9,1.9-3.2c-0.2-0.8-1-1.2-1-1.3
		c-1.1-0.6-2.7-0.1-3.9,1.4"/>
	<path class="st32" d="M481.7,335.1c1.3,0.3,2.6,0.6,3.9,0.9"/>
	<path class="st32" d="M482.7,332.9c1.3,0.3,2.5,0.6,3.8,0.9"/>
	<path class="st32" d="M483.9,331c1.1,0.2,2.3,0.4,3.4,0.6"/>
	<path class="st32" d="M518.1,329.2c4.5,6.5,5,8.8,4.2,9.6c-0.5,0.6-1.8,0.5-2.2,1.5c-0.3,0.8,0.3,1.2,0,2c-0.5,1.2-2.2,0.7-3.1,1.9
		c-0.4,0.5-0.2,0.8-0.2,4.2c0,2.2-0.1,2.1,0,2.5c0.5,1.8,1.8,2.1,2.2,3.8c0,0.2,0.3,1.7-0.5,2.7c-0.8,1-2.2,0.7-6.4,0.7
		c-2.7,0-4,0.4-5.7-0.4c-0.7-0.3-1.4-0.7-1.7-1.4c-0.4-1.2,0.8-2,1.1-4.4c0-0.1,0-0.9,0-2.5c0-2.7,0-4.1-0.3-4.6
		c-0.7-1.7-1.9-1.4-2.2-2.7c-0.2-1.1,0.4-1.4,0.5-3.7c0-0.8,0-1.5,0-1.5c-0.1-1.5-0.2-1.7,0-2c0.5-1,2.9-1.3,4-0.3
		c0.2,0.2,0.5,0.5,0.9,2.8c0.4,2.3,0.2,2.7,0.4,3.2c0.5,1,2.7,1.7,10,0.1"/>
	<path class="st32" d="M516.6,350.6c-0.4-0.3-2.9-2.2-6.2-1.4c-2.2,0.5-3.5,1.9-3.9,2.4"/>
	<path class="st32" d="M512.5,330.8c0.7,0.9,1.7,2.2,2.4,3.9c0.9,2.1,0.8,3.1,1.6,3.8c0.8,0.6,2.3,0.7,5.6-1"/>
	<path class="st32" d="M516,325.4c3,2.2,3.4,3,3.2,3.4c-0.2,0.5-1.4,0.1-3.3,0.9c-1.3,0.6-1.1,0.9-2.1,1.2c-2,0.6-3.7-0.7-4.3,0
		c-0.2,0.2,0,0.4-0.1,1.2c0,0.6-0.2,2.1-0.9,2.5c-0.9,0.6-2.7-1-3.3-1.5c-0.8-0.7-2.2-1.9-1.9-3.2c0.2-0.8,1-1.2,1-1.3
		c1.1-0.6,2.7-0.1,3.9,1.4"/>
	<path class="st32" d="M520.5,335.1c-1.3,0.3-2.6,0.6-3.9,0.9"/>
	<path class="st32" d="M519.5,332.9c-1.3,0.3-2.5,0.6-3.8,0.9"/>
	<path class="st32" d="M518.3,331c-1.1,0.2-2.3,0.4-3.4,0.6"/>
	<path class="st34" d="M483.4,345.3c0,0.6-1.1,1.3-2.2,1.3c-1.1,0-1.6-0.8-5.1-4.2c-1.2-1.2-1.1-1-1.2-1.2c-2.1-2.4-3.3-5.4-2.7-5.8
		c0.4-0.3,1.8,1,3.3,2.3c3.4,3,3.1,4.2,5.6,5.8C482.4,344.3,483.5,344.7,483.4,345.3z"/>
	<g>
		<path class="st43" d="M473,295.9c0.1,0.2,3,0.2,3.8-1.8c0.5-1.3,0.2-3.2-1-3.6c-1-0.3-2.4,0.5-2.5,1.4c-0.1,0.9,1.4,1.4,1.2,2.5
			C474.4,295.3,472.9,295.7,473,295.9z"/>
		<path class="st43" d="M477.9,292c-2.2,0.5-3.2-3.1-8.3-4.4c-1.6-0.4-2.4-0.3-2.9-1c-0.6-0.9-0.2-2.2,2.7-8.2
			c2.2-4.5,2.5-4.9,3-5.1c3.5-2.1,10.6,1.2,11.4,5.3c0.1,0.7,0.1,1.2-2.4,6.9C479,291.3,478.6,291.8,477.9,292z"/>
		<g>
			<path class="st43" d="M528.9,295.9c-0.1,0.2-3,0.2-3.8-1.8c-0.5-1.3-0.2-3.2,1-3.6c1-0.3,2.4,0.5,2.5,1.4
				c0.1,0.9-1.4,1.4-1.2,2.5C527.5,295.3,529,295.7,528.9,295.9z"/>
			<path class="st43" d="M524,292c2.2,0.5,3.2-3.1,8.3-4.4c1.6-0.4,2.4-0.3,2.9-1c0.6-0.9,0.2-2.2-2.7-8.2c-2.2-4.5-2.5-4.9-3-5.1
				c-3.5-2.1-10.6,1.2-11.4,5.3c-0.1,0.7-0.1,1.2,2.4,6.9C522.9,291.3,523.3,291.8,524,292z"/>
			<path class="st43" d="M528.9,295.9c-0.4,0.5-1,1.2-2,1.5c-0.7,0.2-1,0.2-2.9,0.1c0,0-2.2-0.1-4.3,0c-0.9,0-3,0.1-3.4,0.1"/>
		</g>
		<path class="st43" d="M473,295.9c0.4,0.5,1,1.2,2,1.5c0.7,0.2,1,0.2,2.9,0.1c0,0,2.2-0.1,4.3,0c0.9,0,2.4,0.1,2.9,0.1"/>
	</g>
	<path class="st32" d="M491,262.5c2.4-0.8,5.9-1.6,10-1.7c4.2-0.1,7.8,0.6,10.3,1.2"/>
	<g>
		<path class="st43" d="M458.8,235.5c-0.2,0.7,1,1.1,5.7,4.6c4.9,3.6,8.1,6.4,10.4,9.4c2.3,3.1,2.7,5.1,3.9,7.6
			c1.7,3.6,6.7,12.1,15.8,15.3c1.5,0.5,7.6,2.7,14,0.3c5.7-2.1,9-7,15.5-16.6c3.3-5,4-6.9,7.2-10c4.7-4.6,8.4-7.1,8.4-7.1
			c2.9-2,4.4-2.5,4.3-3.4c-0.2-1.6-5.6-3.2-10.2-1.6c-3.9,1.3-3.7,3.8-7.5,4.6c-0.8,0.2-0.5,0-7.8,0c-2,0-3.1,0-4.4,0.6
			c-0.7,0.3-3.6,1.5-3.5,3.7c0,1.4,1.8,1.7,3.2,3.4c2.8,3.3,1.4,8.7,0.9,10.7c-0.6,2.2-1.7,6.8-6.1,9.4c-4.6,2.8-10.2,1.9-13.9-0.2
			c-3.9-2.2-5.5-5.8-6.5-8c-1-2.2-2.8-6.2-1.2-9.4c0.5-1,1.5-2.3,2.6-3.3c1.9-1.8,2.9-1.8,3-2.7c0.2-1.6-3.1-4.3-6.8-4.8
			c-3.7-0.5-4.8,1.5-8.4,0.8c-2.7-0.5-2.9-1.8-5.8-3.3C466.1,232.9,459.2,233.9,458.8,235.5z"/>
		<g>
			<ellipse class="st49" cx="501" cy="266.2" rx="6.4" ry="5.3"/>
			<circle class="st50" cx="501.2" cy="265.7" r="0.8"/>
			<line class="st50" x1="501.3" y1="264.4" x2="501.3" y2="262.1"/>
			<line class="st50" x1="502" y1="264.8" x2="502.9" y2="262.4"/>
			<line class="st50" x1="502.2" y1="265.3" x2="504.5" y2="263.2"/>
			<line class="st50" x1="502" y1="265.3" x2="505.2" y2="264.4"/>
			<line class="st50" x1="502.4" y1="265.7" x2="505.9" y2="265.6"/>
			<line class="st50" x1="506" y1="267" x2="502" y2="265.7"/>
			<line class="st50" x1="505" y1="268.3" x2="501.8" y2="266.4"/>
			<line class="st50" x1="503.7" y1="269.5" x2="501.8" y2="266.4"/>
			<line class="st50" x1="502" y1="269.8" x2="501.2" y2="266.5"/>
			<line class="st50" x1="500.1" y1="269.8" x2="500.9" y2="267"/>
			<line class="st50" x1="498.2" y1="269.2" x2="500.3" y2="266.7"/>
			<line class="st50" x1="497.3" y1="268" x2="500.3" y2="266.4"/>
			<line class="st50" x1="496.5" y1="266.7" x2="500.1" y2="265.9"/>
			<line class="st50" x1="496.6" y1="265.5" x2="500.4" y2="265.7"/>
			<line class="st50" x1="497.4" y1="263.9" x2="499.8" y2="265"/>
			<line class="st50" x1="498.7" y1="262.8" x2="500.7" y2="265"/>
			<line class="st50" x1="500" y1="262.4" x2="501.2" y2="265"/>
		</g>
	</g>
	<line class="st45" x1="498.4" y1="335.6" x2="503.4" y2="335.6"/>
	<path class="st43" d="M472.3,275.7c0.8-0.2,2.5-0.6,4.4,0c3.3,0.9,4.9,3.5,5.3,4.1"/>
	<path class="st43" d="M468.1,285.4c0.8-0.2,2.5-0.6,4.4,0c3.3,0.9,4.9,3.5,5.3,4.1"/>
	<path class="st43" d="M529.4,275.7c-0.8-0.2-2.5-0.6-4.4,0c-3.3,0.9-4.9,3.5-5.3,4.1"/>
	<path class="st43" d="M533.5,285.4c-0.8-0.2-2.5-0.6-4.4,0c-3.3,0.9-4.9,3.5-5.3,4.1"/>
	<path class="st34" d="M530.2,334.1c0.8,0.1,1.2-0.2,2,0.2c0.6,0.3,1.4,1.1,1.2,1.9c-0.2,0.7-1.1,1-1.7,0.9c-0.7,0-1-0.5-1.6-0.9
		c-1.5-1.1-4.1-1.8-6-1.2c-0.3,0.1-0.6,0.2-1.1,0.1c-0.7-0.2-0.8-1.1-1.6-1.9c-0.4-0.4-0.8-0.5-1.3-0.8c-2.5-1.1-8.4-3.6-11-5
		c-4.3-2.4-7-6.1-6.7-6.6c0.5-0.7,9,4.6,9.9,5.1c0,0,2.7,1.7,8.8,4.4c0.3,0.1,1.1,0.5,2.1,0.5c1.1,0.1,1.3-0.2,2-0.1
		C527.4,330.9,527.8,333.8,530.2,334.1z"/>
	<path class="st46" d="M520.3,323.5c0.3,2.6,1.3,3.9,2.1,4.6c0.9,0.7,2.1,1.1,2,1.6c-0.1,0.5-1.4,0.6-1.4,0.8c0,0.3,2.4,0,2.8,0.8
		c0.5,1-2.1,2.4-1.6,4.2c0.1,0.5,0.5,1,0.9,1.1c0.9,0.1,1.7-2.2,1.9-2.1c0.1,0.1-1,2.4-0.7,2.6c0.3,0.2,2.3-2.2,2.4-2.1
		c0.1,0.1-1.8,2.2-1.5,2.4c0.2,0.2,2.3-1.8,2.5-1.6c0.2,0.2-1.4,1.9-1.4,1.9c0,0,1.7-1.1,1.9-2.8c0.2-1.9-1.7-3.1-1.2-4.7
		c0.1-0.2,0.3-0.9,0.2-1.6c0,0-0.1-0.3-0.2-0.6c-0.8-1.4-4.4-0.5-4.8-1.6c-0.2-0.5,0.4-1.4,1-1.7c0.9-0.6,1.9-0.1,2.3-0.6
		c0.2-0.3,0.2-1-0.2-1.4c-0.8-0.9-2.8,0.5-4.1-0.5c-0.5-0.4-0.8-1.1-0.7-1.7c0.2-0.7,1.1-1.2,2.3-1.1"/>
	
		<ellipse transform="matrix(0.9738 -0.2273 0.2273 0.9738 -42.5531 116.4637)" class="st49" cx="484.5" cy="243" rx="2.4" ry="1.7"/>
	<ellipse transform="matrix(0.2273 -0.9738 0.9738 0.2273 164.1786 691.755)" class="st49" cx="518" cy="242.4" rx="1.7" ry="2.4"/>
</g>
<g>
	<g class="st51">
		<g>
			<defs>
				<rect id="SVGID_00000173157918993008671170000009071989881190540437_" x="537.2" y="395.8" width="6" height="3.1"/>
			</defs>
			<clipPath id="SVGID_00000075844831000072893500000015826001033846199471_">
				<use xlink:href="#SVGID_00000173157918993008671170000009071989881190540437_"  style="overflow:visible;"/>
			</clipPath>
			<path style="clip-path:url(#SVGID_00000075844831000072893500000015826001033846199471_);fill:#010101;" d="M540.1,395.8l-3,1.4
				l3,1.8l3-1.8L540.1,395.8z"/>
		</g>
	</g>
	<g class="st53">
		<g>
			<defs>
				<rect id="SVGID_00000051369536788172032260000018404563773725191074_" x="537.2" y="392.2" width="3" height="6.7"/>
			</defs>
			<clipPath id="SVGID_00000108291164568334600440000012325188823496412847_">
				<use xlink:href="#SVGID_00000051369536788172032260000018404563773725191074_"  style="overflow:visible;"/>
			</clipPath>
			<path style="clip-path:url(#SVGID_00000108291164568334600440000012325188823496412847_);fill:#010101;" d="M537.2,397.2l3,1.8
				v-6.7L537.2,397.2z"/>
		</g>
	</g>
	<g class="st55">
		<g>
			<defs>
				<rect id="SVGID_00000173128790643230164540000016263875166658394502_" x="540.1" y="392.2" width="3" height="6.7"/>
			</defs>
			<clipPath id="SVGID_00000164480007922118279470000009765773858856535215_">
				<use xlink:href="#SVGID_00000173128790643230164540000016263875166658394502_"  style="overflow:visible;"/>
			</clipPath>
			<path style="clip-path:url(#SVGID_00000164480007922118279470000009765773858856535215_);fill:#010101;" d="M540.1,392.2v6.7
				l3-1.8L540.1,392.2z"/>
		</g>
	</g>
	<g class="st53">
		<g>
			<defs>
				<rect id="SVGID_00000016039803821212083370000010021732881340861582_" x="537.2" y="397.7" width="3" height="4.2"/>
			</defs>
			<clipPath id="SVGID_00000039106090377264984850000010780294730666735530_">
				<use xlink:href="#SVGID_00000016039803821212083370000010021732881340861582_"  style="overflow:visible;"/>
			</clipPath>
			<path style="clip-path:url(#SVGID_00000039106090377264984850000010780294730666735530_);fill:#010101;" d="M537.2,397.7l3,4.2
				v-2.4L537.2,397.7z"/>
		</g>
	</g>
	<g class="st55">
		<g>
			<defs>
				<rect id="SVGID_00000034791455647869936980000003250962203478227602_" x="540.1" y="397.7" width="3" height="4.2"/>
			</defs>
			<clipPath id="SVGID_00000042701500197885502700000005265944466733336963_">
				<use xlink:href="#SVGID_00000034791455647869936980000003250962203478227602_"  style="overflow:visible;"/>
			</clipPath>
			<path style="clip-path:url(#SVGID_00000042701500197885502700000005265944466733336963_);fill:#010101;" d="M540.1,399.5v2.4
				l3-4.2L540.1,399.5z"/>
		</g>
	</g>
</g>
<g>
	<g class="st51">
		<g>
			<defs>
				<rect id="SVGID_00000019655070241893436310000001619291232565127868_" x="374.9" y="395.9" width="6" height="3.1"/>
			</defs>
			<clipPath id="SVGID_00000172417790766068362000000004703764030930155438_">
				<use xlink:href="#SVGID_00000019655070241893436310000001619291232565127868_"  style="overflow:visible;"/>
			</clipPath>
			<path style="clip-path:url(#SVGID_00000172417790766068362000000004703764030930155438_);fill:#010101;" d="M377.9,395.9l-3,1.4
				l3,1.8l3-1.8L377.9,395.9z"/>
		</g>
	</g>
	<g class="st53">
		<g>
			<defs>
				<rect id="SVGID_00000099648483123390222700000011701576570881665937_" x="374.9" y="392.3" width="3" height="6.7"/>
			</defs>
			<clipPath id="SVGID_00000159430334154252618820000017300307669037148844_">
				<use xlink:href="#SVGID_00000099648483123390222700000011701576570881665937_"  style="overflow:visible;"/>
			</clipPath>
			<path style="clip-path:url(#SVGID_00000159430334154252618820000017300307669037148844_);fill:#010101;" d="M374.9,397.2l3,1.8
				v-6.7L374.9,397.2z"/>
		</g>
	</g>
	<g class="st55">
		<g>
			<defs>
				<rect id="SVGID_00000118369221871992743370000009744007823227982220_" x="377.9" y="392.3" width="3" height="6.7"/>
			</defs>
			<clipPath id="SVGID_00000076566239322044381950000002420228809534084000_">
				<use xlink:href="#SVGID_00000118369221871992743370000009744007823227982220_"  style="overflow:visible;"/>
			</clipPath>
			<path style="clip-path:url(#SVGID_00000076566239322044381950000002420228809534084000_);fill:#010101;" d="M377.9,392.3v6.7
				l3-1.8L377.9,392.3z"/>
		</g>
	</g>
	<g class="st53">
		<g>
			<defs>
				<rect id="SVGID_00000139257582315322187670000005479340274617271469_" x="374.9" y="397.8" width="3" height="4.2"/>
			</defs>
			<clipPath id="SVGID_00000118397506850576233020000010458547482008971917_">
				<use xlink:href="#SVGID_00000139257582315322187670000005479340274617271469_"  style="overflow:visible;"/>
			</clipPath>
			<path style="clip-path:url(#SVGID_00000118397506850576233020000010458547482008971917_);fill:#010101;" d="M374.9,397.8l3,4.2
				v-2.4L374.9,397.8z"/>
		</g>
	</g>
	<g class="st55">
		<g>
			<defs>
				<rect id="SVGID_00000125586846128992936210000009088595406407931323_" x="377.9" y="397.8" width="3" height="4.2"/>
			</defs>
			<clipPath id="SVGID_00000078033414889986313310000002076133930012405383_">
				<use xlink:href="#SVGID_00000125586846128992936210000009088595406407931323_"  style="overflow:visible;"/>
			</clipPath>
			<path style="clip-path:url(#SVGID_00000078033414889986313310000002076133930012405383_);fill:#010101;" d="M377.9,399.5v2.4
				l3-4.2L377.9,399.5z"/>
		</g>
	</g>
</g>
<g>
	<g class="st51">
		<g>
			<defs>
				<rect id="SVGID_00000041982451245117693040000012729587825564034228_" x="212.8" y="395.9" width="6" height="3.1"/>
			</defs>
			<clipPath id="SVGID_00000050621934495467308890000010086209664194528954_">
				<use xlink:href="#SVGID_00000041982451245117693040000012729587825564034228_"  style="overflow:visible;"/>
			</clipPath>
			<path style="clip-path:url(#SVGID_00000050621934495467308890000010086209664194528954_);fill:#010101;" d="M215.8,395.9l-3,1.4
				l3,1.8l3-1.8L215.8,395.9z"/>
		</g>
	</g>
	<g class="st53">
		<g>
			<defs>
				<rect id="SVGID_00000010309652694907753690000014968653764289265793_" x="212.8" y="392.3" width="3" height="6.7"/>
			</defs>
			<clipPath id="SVGID_00000018195288477674441130000008599253357282890921_">
				<use xlink:href="#SVGID_00000010309652694907753690000014968653764289265793_"  style="overflow:visible;"/>
			</clipPath>
			<path style="clip-path:url(#SVGID_00000018195288477674441130000008599253357282890921_);fill:#010101;" d="M212.8,397.2l3,1.8
				v-6.7L212.8,397.2z"/>
		</g>
	</g>
	<g class="st55">
		<g>
			<defs>
				<rect id="SVGID_00000031169814718836010090000008783239251472978320_" x="215.8" y="392.3" width="3" height="6.7"/>
			</defs>
			<clipPath id="SVGID_00000135674102818134011200000008127470638534173351_">
				<use xlink:href="#SVGID_00000031169814718836010090000008783239251472978320_"  style="overflow:visible;"/>
			</clipPath>
			<path style="clip-path:url(#SVGID_00000135674102818134011200000008127470638534173351_);fill:#010101;" d="M215.8,392.3v6.7
				l3-1.8L215.8,392.3z"/>
		</g>
	</g>
	<g class="st53">
		<g>
			<defs>
				<rect id="SVGID_00000083767955521638079150000015203961568398042548_" x="212.8" y="397.8" width="3" height="4.2"/>
			</defs>
			<clipPath id="SVGID_00000029733996043219051270000006574680259950014129_">
				<use xlink:href="#SVGID_00000083767955521638079150000015203961568398042548_"  style="overflow:visible;"/>
			</clipPath>
			<path style="clip-path:url(#SVGID_00000029733996043219051270000006574680259950014129_);fill:#010101;" d="M212.8,397.8l3,4.2
				v-2.4L212.8,397.8z"/>
		</g>
	</g>
	<g class="st55">
		<g>
			<defs>
				<rect id="SVGID_00000020372482770289501040000009854000221334337205_" x="215.8" y="397.8" width="3" height="4.2"/>
			</defs>
			<clipPath id="SVGID_00000136388195713107551760000014780648425239800228_">
				<use xlink:href="#SVGID_00000020372482770289501040000009854000221334337205_"  style="overflow:visible;"/>
			</clipPath>
			<path style="clip-path:url(#SVGID_00000136388195713107551760000014780648425239800228_);fill:#010101;" d="M215.8,399.5v2.4
				l3-4.2L215.8,399.5z"/>
		</g>
	</g>
</g>
</svg>
