<?xml version="1.0" encoding="utf-8"?>
<!-- Generator: Adobe Illustrator 26.2.1, SVG Export Plug-In . SVG Version: 6.00 Build 0)  -->
<svg version="1.2" baseProfile="tiny" id="レイヤー_1"
	 xmlns="http://www.w3.org/2000/svg" xmlns:xlink="http://www.w3.org/1999/xlink" x="0px" y="0px" viewBox="0 0 890.55 68.25"
	 overflow="visible" xml:space="preserve">
<path fill="#FFFFFF" d="M889.8,11.49h-61.62c-0.41,0-0.75,0.34-0.75,0.75v9.4c0,0.41,0.34,0.75,0.75,0.75h24.84v43.37
	c0,0.41,0.34,0.75,0.75,0.75h10.44c0.41,0,0.75-0.34,0.75-0.75V22.39h24.84c0.41,0,0.75-0.34,0.75-0.75v-9.4
	C890.55,11.82,890.21,11.49,889.8,11.49z M580.28,2h-70.67c-0.41,0-0.75,0.34-0.75,0.75v9.4c0,0.41,0.34,0.75,0.75,0.75h29.36v52.86
	c0,0.41,0.34,0.75,0.75,0.75h10.44c0.41,0,0.75-0.34,0.75-0.75V12.9h29.36c0.41,0,0.75-0.34,0.75-0.75v-9.4
	C581.03,2.34,580.69,2,580.28,2z M645.42,45.95c8.5-2.25,12.81-7.88,12.81-16.74c0-5.36-1.78-9.7-5.29-12.91
	c-3.49-3.19-8.23-4.81-14.08-4.81h-43.25c-0.41,0-0.75,0.34-0.75,0.75v53.52c0,0.41,0.34,0.75,0.75,0.75h10.44
	c0.41,0,0.75-0.34,0.75-0.75V46.84h25.45l13.79,19.35c0.14,0.2,0.37,0.31,0.61,0.31h11.97c0.28,0,0.54-0.16,0.67-0.41
	c0.13-0.25,0.11-0.55-0.06-0.78L645.42,45.95z M637.29,35.94H606.8V22.39h29.88c6.29,0,9.35,2.29,9.35,7
	C646.03,33.8,643.17,35.94,637.29,35.94z M811.45,36.92c-3.8-2.31-10.2-3.93-19.03-4.8c-6.09-0.58-12.19-1.13-18.22-1.65
	c-4.03-0.68-6.08-2.07-6.08-4.13c0-4.63,9.29-5.61,17.09-5.61c8.02,0,15.54,1.82,22.37,5.4c0.3,0.16,0.66,0.1,0.89-0.15l6.44-6.79
	c0.15-0.16,0.22-0.37,0.2-0.59c-0.02-0.22-0.14-0.41-0.32-0.54c-7.57-5.29-17.59-7.97-29.76-7.97c-9.15,0-16.37,1.54-21.49,4.59
	c-5.24,3.12-7.89,7.42-7.89,12.78c0,4.47,1.69,7.93,5.02,10.27c3.23,2.27,8.27,3.75,14.97,4.4c1.71,0.18,6.32,0.44,13.7,0.79
	c4.68,0.23,8.16,0.66,10.36,1.28c3.73,1.07,5.55,2.8,5.55,5.28c0,2.26-1.48,4.04-4.53,5.46c-3.19,1.48-7.8,2.24-13.7,2.24
	c-10.53,0-19.52-2.56-26.72-7.61c-0.33-0.23-0.78-0.16-1.02,0.16l-5.66,7.4c-0.12,0.16-0.17,0.36-0.15,0.55
	c0.03,0.2,0.13,0.38,0.29,0.5c8.34,6.34,19.58,9.55,33.44,9.55c9.84,0,17.48-1.62,22.71-4.81c5.35-3.26,8.06-7.96,8.06-13.95
	C817.99,43.6,815.79,39.55,811.45,36.92z M738.09,11.49h-10.44c-0.41,0-0.75,0.34-0.75,0.75v33.85c0,7.46-6.5,11.09-19.88,11.09
	c-13.43,0-19.96-3.63-19.96-11.09V12.24c0-0.41-0.34-0.75-0.75-0.75h-10.44c-0.41,0-0.75,0.34-0.75,0.75v35.94
	c0,5.87,2.96,10.73,8.79,14.43c5.72,3.63,13.5,5.47,23.12,5.47c9.56,0,17.3-1.84,23.03-5.47c5.83-3.7,8.79-8.55,8.79-14.43V12.24
	C738.84,11.82,738.5,11.49,738.09,11.49z M295.24,11.49h-43.25c-0.41,0-0.75,0.34-0.75,0.75v53.52c0,0.41,0.34,0.75,0.75,0.75h10.44
	c0.41,0,0.75-0.34,0.75-0.75V46.84h30.32c6.71,0,11.95-1.54,15.58-4.57c3.67-3.07,5.54-7.46,5.54-13.06c0-5.36-1.78-9.7-5.29-12.91
	C305.83,13.11,301.09,11.49,295.24,11.49z M293.67,35.94h-30.49V22.39h29.88c6.29,0,9.35,2.29,9.35,7
	C302.41,33.8,299.55,35.94,293.67,35.94z M145.66,45.95c8.5-2.25,12.81-7.88,12.81-16.74c0-5.36-1.78-9.7-5.29-12.91
	c-3.49-3.19-8.23-4.81-14.08-4.81H95.85c-0.41,0-0.75,0.34-0.75,0.75v53.52c0,0.41,0.34,0.75,0.75,0.75h10.44
	c0.41,0,0.75-0.34,0.75-0.75V46.84h25.45l13.79,19.35c0.14,0.2,0.37,0.31,0.61,0.31h11.97c0.28,0,0.54-0.16,0.67-0.41
	c0.13-0.25,0.11-0.55-0.06-0.78L145.66,45.95z M137.53,35.94h-30.49V22.39h29.88c6.29,0,9.35,2.29,9.35,7
	C146.27,33.8,143.41,35.94,137.53,35.94z M237.93,11.49h-12.65c-0.21,0-0.4,0.09-0.55,0.24l-22.36,23.83l-22.35-23.83
	c-0.14-0.15-0.34-0.24-0.55-0.24h-12.74c-0.3,0-0.57,0.18-0.69,0.45c-0.12,0.27-0.06,0.59,0.14,0.81l30.08,32.25v20.77
	c0,0.41,0.34,0.75,0.75,0.75h10.44c0.41,0,0.75-0.34,0.75-0.75V45l30.26-32.25c0.2-0.22,0.26-0.54,0.14-0.81
	C238.5,11.67,238.23,11.49,237.93,11.49z M41.13,0C30.05,0,20.62,2.89,13.09,8.59C4.4,15.15,0,23.73,0,34.08
	c0,10.52,4.35,19.16,12.92,25.66c7.46,5.64,16.96,8.51,28.21,8.51c8.01,0,15-1.2,20.78-3.58c5.8-2.39,11.06-6.3,15.65-11.65
	c0.15-0.17,0.21-0.4,0.17-0.62c-0.04-0.22-0.18-0.41-0.37-0.52l-8.97-4.96c-0.3-0.17-0.68-0.11-0.91,0.15
	c-6.2,6.71-14.86,10.12-25.73,10.12c-9.01,0-16.24-2.15-21.51-6.4c-5.22-4.21-7.86-9.83-7.86-16.69c0-6.63,2.67-12.18,7.95-16.48
	c5.32-4.33,12.32-6.53,20.81-6.53c11.22,0,20.05,3.35,26.26,9.95c0.2,0.22,0.52,0.3,0.8,0.19l9.48-3.4c0.23-0.08,0.4-0.26,0.47-0.49
	c0.07-0.23,0.02-0.48-0.13-0.67C69.49,5.6,57.08,0,41.13,0z M386.38,11.49h-61.62c-0.41,0-0.75,0.34-0.75,0.75v9.4
	c0,0.41,0.34,0.75,0.75,0.75h24.84v43.37c0,0.41,0.34,0.75,0.75,0.75h10.44c0.41,0,0.75-0.34,0.75-0.75V22.39h24.84
	c0.41,0,0.75-0.34,0.75-0.75v-9.4C387.13,11.82,386.8,11.49,386.38,11.49z M456.27,17.03c-6.71-4.89-14.88-7.37-24.29-7.37
	c-9.46,0-17.66,2.48-24.37,7.37c-7.71,5.58-11.62,12.93-11.62,21.84c0,9.03,3.88,16.44,11.53,22.01c6.54,4.77,14.77,7.2,24.46,7.2
	c9.69,0,17.89-2.42,24.38-7.2c7.65-5.63,11.53-13.04,11.53-22.01C467.89,30.01,463.98,22.66,456.27,17.03z M449.13,52.06
	c-4.29,3.4-10.07,5.12-17.19,5.12c-7.18,0-13-1.72-17.32-5.12c-4.26-3.35-6.43-7.81-6.43-13.24c0-5.27,2.15-9.53,6.56-13.02
	c4.4-3.48,10.19-5.25,17.19-5.25c6.94,0,12.68,1.75,17.06,5.2c4.32,3.41,6.51,7.81,6.51,13.06
	C455.52,44.26,453.37,48.71,449.13,52.06z"/>
</svg>
