<?xml version="1.0" encoding="UTF-8"?>
<svg xmlns="http://www.w3.org/2000/svg" version="1.1" viewBox="0 0 560 400">
  <defs>
    <style>
      .cls-1 {
        fill: #f7a600;
        fill-rule: evenodd;
      }

      .cls-2 {
        fill: #fff;
      }
    </style>
  </defs>
  <!-- Generator: Adobe Illustrator 28.7.1, SVG Export Plug-In . SVG Version: 1.2.0 Build 142)  -->
  <g>
    <g id="_レイヤー_1" data-name="レイヤー_1">
      <g id="_レイヤー_1-2" data-name="_レイヤー_1">
        <path class="cls-1" d="M399.2,106.7h28.9v143.9h-28.9V106.7Z"/>
        <g>
          <path class="cls-2" d="M62.1,293.3H0v-143.9h59.6c28.9,0,45.7,15.7,45.7,40.4s-10.9,26.3-18.4,29.7c9,4,20.4,13.1,20.4,32.4s-19,41.4-45.4,41.4h.2ZM57.2,174.5h-28.3v33.1h28.3c12.3,0,19.1-6.7,19.1-16.6s-6.8-16.6-19.1-16.6v.2ZM59.1,232.8h-30.2v35.3h30.2c13.1,0,19.3-8.1,19.3-17.7s-6.2-17.6-19.3-17.6Z"/>
          <path class="cls-2" d="M195.5,234.4v59h-28.8v-59l-44.5-84.9h31.4l27.7,58,27.2-58h31.4l-44.5,84.9h0Z"/>
          <path class="cls-2" d="M322.2,293.3h-62.1v-143.9h59.6c28.9,0,45.7,15.7,45.7,40.4s-10.9,26.3-18.4,29.7c8.9,4,20.4,13.1,20.4,32.4s-19,41.4-45.4,41.4h.2ZM317.3,174.5h-28.3v33.1h28.3c12.3,0,19.1-6.7,19.1-16.6s-6.8-16.6-19.1-16.6v.2ZM319.2,232.8h-30.2v35.3h30.2c13.1,0,19.3-8.1,19.3-17.7s-6.2-17.6-19.3-17.6Z"/>
          <path class="cls-2" d="M521.3,174.5v118.8h-28.9v-118.8h-38.7v-25h106.4v25h-38.7Z"/>
        </g>
      </g>
    </g>
  </g>
</svg>