<svg data-v-609bda7e="" xmlns="http://www.w3.org/2000/svg" width="20" height="20" viewBox="0 0 20 20" role="presentation" fill="currentColor" fill-rule="nonzero" stroke="none" stroke-width="1" stroke-linecap="butt" stroke-linejoin="miter" aria-label="Logo Icon" class="svg-icon" data-v-11ae72ac=""><path fill="url(#paint0_radial)" fill-rule="evenodd" d="M4.78 2.537L2.244 0h5.075L4.781 2.537zm0 2.031L.213.003h1.682L4.606 2.71c.023.023.05.042.08.054.03.013.062.019.094.019.033 0 .065-.006.095-.019.03-.012.057-.03.08-.054L7.667.003h1.682L4.781 4.568zm0 2.03L0 1.82V.14l4.606 4.604c.023.023.05.041.08.054.03.012.062.019.094.019.033 0 .065-.007.095-.02.03-.012.057-.03.08-.053L9.698.002h1.682l-6.6 6.597zm0 2.032L0 3.852v-1.68l4.606 4.605c.046.046.109.072.174.072.066 0 .128-.026.175-.072L11.729.003h1.683L4.78 8.63zm0 2.031L0 5.881V4.204l4.606 4.604c.023.023.05.041.08.054.03.012.062.019.094.019.033 0 .065-.007.095-.02.03-.012.057-.03.08-.053L13.76.003h1.683L4.78 10.661zm0 2.03L0 7.914v-1.68l4.606 4.606c.023.022.05.04.08.053.03.013.062.019.094.019.033 0 .065-.006.095-.019.03-.012.057-.03.08-.053L15.792.002h1.682L4.78 12.692zm2.538 5.354V15.44L18.209 4.55l-.067 13.5-10.824-.004zM17.822.003H20V20H4.885v-7.082c.026-.011.05-.028.07-.048L17.822.003zM3.434 20h.077v-8.228l1.097 1.098.021.018V20H3.434zm-1.561 0h.258v-9.604l1.118 1.118V20H1.873zM.755 20V9.016l1.118 1.118V20H.755zM.495 8.76V20H0V8.265l.496.496z" clip-rule="evenodd"></path><defs><radialGradient id="paint0_radial" cx="0" cy="0" r="1" gradientTransform="translate(10.04 10) scale(11.4881)" gradientUnits="userSpaceOnUse"><stop stop-color="#FFE486"></stop><stop offset=".499" stop-color="#BB9D35"></stop><stop offset="1" stop-color="#A4851A"></stop></radialGradient></defs></svg>